<svg width="274" height="70" viewBox="0 0 274 70" fill="none" xmlns="http://www.w3.org/2000/svg">
<g clip-path="url(#clip0)">
<g filter="url(#filter0_d)">
<path fill-rule="evenodd" clip-rule="evenodd" d="M26.5 0C11.8645 0 0 11.8645 0 26.5C0 41.1355 11.8645 53 26.5 53H32.3736C33.4412 56.4743 36.6756 59 40.5 59C44.3244 59 47.5588 56.4743 48.6264 53H247.5C262.136 53 274 41.1355 274 26.5C274 11.8645 262.136 0 247.5 0H26.5Z" fill="white"/>
</g>
<g filter="url(#filter1_d)">
<path d="M30 65.5C30 67.9853 27.9853 70 25.5 70C23.0147 70 21 67.9853 21 65.5C21 63.0147 23.0147 61 25.5 61C27.9853 61 30 63.0147 30 65.5Z" fill="white"/>
</g>
<path d="M28.024 21.8799V32.9999H26.2V21.8799H28.024Z" fill="#2F281E"/>
<path d="M33.967 28.5839C33.967 27.6773 34.1483 26.8826 34.511 26.1999C34.8843 25.5066 35.3963 24.9733 36.047 24.5999C36.6977 24.2266 37.4443 24.0399 38.287 24.0399C39.3537 24.0399 40.2337 24.2959 40.927 24.8079C41.631 25.3093 42.1057 26.0293 42.351 26.9679H40.383C40.223 26.5306 39.967 26.1893 39.615 25.9439C39.263 25.6986 38.8203 25.5759 38.287 25.5759C37.5403 25.5759 36.943 25.8426 36.495 26.3759C36.0577 26.8986 35.839 27.6346 35.839 28.5839C35.839 29.5333 36.0577 30.2746 36.495 30.8079C36.943 31.3413 37.5403 31.6079 38.287 31.6079C39.343 31.6079 40.0417 31.1439 40.383 30.2159H42.351C42.095 31.1119 41.615 31.8266 40.911 32.36C40.207 32.8826 39.3323 33.1439 38.287 33.1439C37.4443 33.1439 36.6977 32.9573 36.047 32.5839C35.3963 32.1999 34.8843 31.6666 34.511 30.9839C34.1483 30.2906 33.967 29.4906 33.967 28.5839Z" fill="#2F281E"/>
<path d="M43.5608 28.5519C43.5608 27.6666 43.7421 26.8826 44.1048 26.1999C44.4781 25.5173 44.9794 24.9893 45.6088 24.6159C46.2488 24.2319 46.9528 24.0399 47.7208 24.0399C48.4141 24.0399 49.0168 24.1786 49.5288 24.4559C50.0514 24.7226 50.4674 25.0586 50.7768 25.4639V24.1839H52.6168V32.9999H50.7768V31.6879C50.4674 32.1039 50.0461 32.4506 49.5128 32.728C48.9794 33.0053 48.3714 33.1439 47.6888 33.1439C46.9314 33.1439 46.2381 32.952 45.6088 32.568C44.9794 32.1733 44.4781 31.6293 44.1048 30.9359C43.7421 30.2319 43.5608 29.4373 43.5608 28.5519ZM50.7768 28.5839C50.7768 27.9759 50.6488 27.4479 50.3928 26.9999C50.1474 26.5519 49.8221 26.2106 49.4168 25.9759C49.0114 25.7413 48.5741 25.6239 48.1048 25.6239C47.6354 25.6239 47.1981 25.7413 46.7928 25.9759C46.3874 26.1999 46.0568 26.5359 45.8008 26.9839C45.5554 27.4213 45.4328 27.9439 45.4328 28.5519C45.4328 29.1599 45.5554 29.6933 45.8008 30.1519C46.0568 30.6106 46.3874 30.9626 46.7928 31.2079C47.2088 31.4426 47.6461 31.5599 48.1048 31.5599C48.5741 31.5599 49.0114 31.4426 49.4168 31.2079C49.8221 30.9733 50.1474 30.6319 50.3928 30.1839C50.6488 29.7253 50.7768 29.1919 50.7768 28.5839Z" fill="#2F281E"/>
<path d="M59.4605 24.0399C60.1538 24.0399 60.7725 24.1839 61.3165 24.4719C61.8712 24.7599 62.3032 25.1866 62.6125 25.7519C62.9218 26.3173 63.0765 26.9999 63.0765 27.7999V32.9999H61.2685V28.0719C61.2685 27.2826 61.0712 26.6799 60.6765 26.2639C60.2818 25.8373 59.7432 25.6239 59.0605 25.6239C58.3778 25.6239 57.8338 25.8373 57.4285 26.2639C57.0338 26.6799 56.8365 27.2826 56.8365 28.0719V32.9999H55.0125V24.1839H56.8365V25.1919C57.1352 24.8293 57.5138 24.5466 57.9725 24.3439C58.4418 24.1413 58.9378 24.0399 59.4605 24.0399Z" fill="#2F281E"/>
<path d="M71.6874 25.6719V30.5519C71.6874 30.8826 71.7621 31.1226 71.9114 31.2719C72.0714 31.4106 72.3381 31.4799 72.7114 31.4799H73.8314V32.9999H72.3914C71.5701 32.9999 70.9407 32.8079 70.5034 32.4239C70.0661 32.0399 69.8474 31.4159 69.8474 30.5519V25.6719H68.8074V24.1839H69.8474V21.9919H71.6874V24.1839H73.8314V25.6719H71.6874Z" fill="#2F281E"/>
<path d="M74.9045 28.5519C74.9045 27.6666 75.0858 26.8826 75.4485 26.1999C75.8218 25.5173 76.3232 24.9893 76.9525 24.6159C77.5925 24.2319 78.2965 24.0399 79.0645 24.0399C79.7578 24.0399 80.3605 24.1786 80.8725 24.4559C81.3952 24.7226 81.8112 25.0586 82.1205 25.4639V24.1839H83.9605V32.9999H82.1205V31.6879C81.8112 32.1039 81.3898 32.4506 80.8565 32.728C80.3232 33.0053 79.7152 33.1439 79.0325 33.1439C78.2752 33.1439 77.5818 32.952 76.9525 32.568C76.3232 32.1733 75.8218 31.6293 75.4485 30.9359C75.0858 30.2319 74.9045 29.4373 74.9045 28.5519ZM82.1205 28.5839C82.1205 27.9759 81.9925 27.4479 81.7365 26.9999C81.4912 26.5519 81.1658 26.2106 80.7605 25.9759C80.3552 25.7413 79.9178 25.6239 79.4485 25.6239C78.9792 25.6239 78.5418 25.7413 78.1365 25.9759C77.7312 26.1999 77.4005 26.5359 77.1445 26.9839C76.8992 27.4213 76.7765 27.9439 76.7765 28.5519C76.7765 29.1599 76.8992 29.6933 77.1445 30.1519C77.4005 30.6106 77.7312 30.9626 78.1365 31.2079C78.5525 31.4426 78.9898 31.5599 79.4485 31.5599C79.9178 31.5599 80.3552 31.4426 80.7605 31.2079C81.1658 30.9733 81.4912 30.6319 81.7365 30.1839C81.9925 29.7253 82.1205 29.1919 82.1205 28.5839Z" fill="#2F281E"/>
<path d="M89.8443 28.5999L93.9083 32.9999H91.4443L88.1803 29.2079V32.9999H86.3563V21.1599H88.1803V28.0399L91.3803 24.1839H93.9083L89.8443 28.5999Z" fill="#2F281E"/>
<path d="M103.296 28.3759C103.296 28.7066 103.274 29.0053 103.232 29.2719H96.4956C96.549 29.9759 96.8103 30.5413 97.2796 30.9679C97.749 31.3946 98.325 31.6079 99.0076 31.6079C99.989 31.6079 100.682 31.1973 101.088 30.3759H103.056C102.789 31.1866 102.304 31.8533 101.6 32.3759C100.906 32.8879 100.042 33.1439 99.0076 33.1439C98.165 33.1439 97.4076 32.9573 96.7356 32.5839C96.0743 32.1999 95.5516 31.6666 95.1676 30.9839C94.7943 30.2906 94.6076 29.4906 94.6076 28.5839C94.6076 27.6773 94.789 26.8826 95.1516 26.1999C95.525 25.5066 96.0423 24.9733 96.7036 24.5999C97.3756 24.2266 98.1436 24.0399 99.0076 24.0399C99.8396 24.0399 100.581 24.2213 101.232 24.5839C101.882 24.9466 102.389 25.4586 102.752 26.1199C103.114 26.7706 103.296 27.5226 103.296 28.3759ZM101.392 27.7999C101.381 27.1279 101.141 26.5893 100.672 26.1839C100.202 25.7786 99.621 25.5759 98.9276 25.5759C98.2983 25.5759 97.7596 25.7786 97.3116 26.1839C96.8636 26.5786 96.597 27.1173 96.5116 27.7999H101.392Z" fill="#2F281E"/>
<path d="M108.639 28.5839C108.639 27.6773 108.82 26.8826 109.183 26.1999C109.556 25.5066 110.068 24.9733 110.719 24.5999C111.37 24.2266 112.116 24.0399 112.959 24.0399C114.026 24.0399 114.906 24.2959 115.599 24.8079C116.303 25.3093 116.778 26.0293 117.023 26.9679H115.055C114.895 26.5306 114.639 26.1893 114.287 25.9439C113.935 25.6986 113.492 25.5759 112.959 25.5759C112.212 25.5759 111.615 25.8426 111.167 26.3759C110.73 26.8986 110.511 27.6346 110.511 28.5839C110.511 29.5333 110.73 30.2746 111.167 30.8079C111.615 31.3413 112.212 31.6079 112.959 31.6079C114.015 31.6079 114.714 31.1439 115.055 30.2159H117.023C116.767 31.1119 116.287 31.8266 115.583 32.36C114.879 32.8826 114.004 33.1439 112.959 33.1439C112.116 33.1439 111.37 32.9573 110.719 32.5839C110.068 32.1999 109.556 31.6666 109.183 30.9839C108.82 30.2906 108.639 29.4906 108.639 28.5839Z" fill="#2F281E"/>
<path d="M118.233 28.5519C118.233 27.6666 118.414 26.8826 118.777 26.1999C119.15 25.5173 119.651 24.9893 120.281 24.6159C120.921 24.2319 121.625 24.0399 122.393 24.0399C123.086 24.0399 123.689 24.1786 124.201 24.4559C124.723 24.7226 125.139 25.0586 125.449 25.4639V24.1839H127.289V32.9999H125.449V31.6879C125.139 32.1039 124.718 32.4506 124.185 32.728C123.651 33.0053 123.043 33.1439 122.361 33.1439C121.603 33.1439 120.91 32.952 120.281 32.568C119.651 32.1733 119.15 31.6293 118.777 30.9359C118.414 30.2319 118.233 29.4373 118.233 28.5519ZM125.449 28.5839C125.449 27.9759 125.321 27.4479 125.065 26.9999C124.819 26.5519 124.494 26.2106 124.089 25.9759C123.683 25.7413 123.246 25.6239 122.777 25.6239C122.307 25.6239 121.87 25.7413 121.465 25.9759C121.059 26.1999 120.729 26.5359 120.473 26.9839C120.227 27.4213 120.105 27.9439 120.105 28.5519C120.105 29.1599 120.227 29.6933 120.473 30.1519C120.729 30.6106 121.059 30.9626 121.465 31.2079C121.881 31.4426 122.318 31.5599 122.777 31.5599C123.246 31.5599 123.683 31.4426 124.089 31.2079C124.494 30.9733 124.819 30.6319 125.065 30.1839C125.321 29.7253 125.449 29.1919 125.449 28.5839Z" fill="#2F281E"/>
<path d="M131.508 25.4639C131.775 25.0159 132.127 24.6693 132.564 24.4239C133.012 24.1679 133.54 24.0399 134.148 24.0399V25.9279H133.684C132.97 25.9279 132.426 26.1093 132.052 26.4719C131.69 26.8346 131.508 27.4639 131.508 28.3599V32.9999H129.684V24.1839H131.508V25.4639Z" fill="#2F281E"/>
<path d="M143.905 28.3759C143.905 28.7066 143.884 29.0053 143.841 29.2719H137.105C137.158 29.9759 137.42 30.5413 137.889 30.9679C138.358 31.3946 138.934 31.6079 139.617 31.6079C140.598 31.6079 141.292 31.1973 141.697 30.3759H143.665C143.398 31.1866 142.913 31.8533 142.209 32.3759C141.516 32.8879 140.652 33.1439 139.617 33.1439C138.774 33.1439 138.017 32.9573 137.345 32.5839C136.684 32.1999 136.161 31.6666 135.777 30.9839C135.404 30.2906 135.217 29.4906 135.217 28.5839C135.217 27.6773 135.398 26.8826 135.761 26.1999C136.134 25.5066 136.652 24.9733 137.313 24.5999C137.985 24.2266 138.753 24.0399 139.617 24.0399C140.449 24.0399 141.19 24.2213 141.841 24.5839C142.492 24.9466 142.998 25.4586 143.361 26.1199C143.724 26.7706 143.905 27.5226 143.905 28.3759ZM142.001 27.7999C141.99 27.1279 141.75 26.5893 141.281 26.1839C140.812 25.7786 140.23 25.5759 139.537 25.5759C138.908 25.5759 138.369 25.7786 137.921 26.1839C137.473 26.5786 137.206 27.1173 137.121 27.7999H142.001Z" fill="#2F281E"/>
<path d="M153.68 33.1439C152.848 33.1439 152.096 32.9573 151.424 32.5839C150.752 32.1999 150.224 31.6666 149.84 30.9839C149.456 30.2906 149.264 29.4906 149.264 28.5839C149.264 27.6879 149.462 26.8933 149.856 26.1999C150.251 25.5066 150.79 24.9733 151.472 24.5999C152.155 24.2266 152.918 24.0399 153.76 24.0399C154.603 24.0399 155.366 24.2266 156.048 24.5999C156.731 24.9733 157.27 25.5066 157.664 26.1999C158.059 26.8933 158.256 27.6879 158.256 28.5839C158.256 29.4799 158.054 30.2746 157.648 30.9679C157.243 31.6613 156.688 32.1999 155.984 32.5839C155.291 32.9573 154.523 33.1439 153.68 33.1439ZM153.68 31.5599C154.15 31.5599 154.587 31.4479 154.992 31.2239C155.408 30.9999 155.744 30.6639 156 30.2159C156.256 29.7679 156.384 29.2239 156.384 28.5839C156.384 27.9439 156.262 27.4053 156.016 26.9679C155.771 26.5199 155.446 26.1839 155.04 25.9599C154.635 25.7359 154.198 25.6239 153.728 25.6239C153.259 25.6239 152.822 25.7359 152.416 25.9599C152.022 26.1839 151.707 26.5199 151.472 26.9679C151.238 27.4053 151.12 27.9439 151.12 28.5839C151.12 29.5333 151.36 30.2693 151.84 30.7919C152.331 31.3039 152.944 31.5599 153.68 31.5599Z" fill="#2F281E"/>
<path d="M163.755 25.6719H162.123V32.9999H160.283V25.6719H159.243V24.1839H160.283V23.5599C160.283 22.5466 160.55 21.8106 161.083 21.3519C161.627 20.8826 162.475 20.6479 163.627 20.6479V22.1679C163.073 22.1679 162.683 22.2746 162.459 22.4879C162.235 22.6906 162.123 23.0479 162.123 23.5599V24.1839H163.755V25.6719Z" fill="#2F281E"/>
<path d="M177.464 24.1839L172.056 37.144H170.168L171.96 32.856L168.488 24.1839H170.52L173 30.9039L175.576 24.1839H177.464Z" fill="#2F281E"/>
<path d="M182.665 33.1439C181.833 33.1439 181.081 32.9573 180.409 32.5839C179.737 32.1999 179.209 31.6666 178.825 30.9839C178.441 30.2906 178.249 29.4906 178.249 28.5839C178.249 27.6879 178.446 26.8933 178.841 26.1999C179.235 25.5066 179.774 24.9733 180.457 24.5999C181.139 24.2266 181.902 24.0399 182.745 24.0399C183.587 24.0399 184.35 24.2266 185.033 24.5999C185.715 24.9733 186.254 25.5066 186.649 26.1999C187.043 26.8933 187.241 27.6879 187.241 28.5839C187.241 29.4799 187.038 30.2746 186.633 30.9679C186.227 31.6613 185.673 32.1999 184.969 32.5839C184.275 32.9573 183.507 33.1439 182.665 33.1439ZM182.665 31.5599C183.134 31.5599 183.571 31.4479 183.977 31.2239C184.393 30.9999 184.729 30.6639 184.985 30.2159C185.241 29.7679 185.369 29.2239 185.369 28.5839C185.369 27.9439 185.246 27.4053 185.001 26.9679C184.755 26.5199 184.43 26.1839 184.025 25.9599C183.619 25.7359 183.182 25.6239 182.713 25.6239C182.243 25.6239 181.806 25.7359 181.401 25.9599C181.006 26.1839 180.691 26.5199 180.457 26.9679C180.222 27.4053 180.105 27.9439 180.105 28.5839C180.105 29.5333 180.345 30.2693 180.825 30.7919C181.315 31.3039 181.929 31.5599 182.665 31.5599Z" fill="#2F281E"/>
<path d="M197.028 24.1839V32.9999H195.204V31.9599C194.916 32.3226 194.537 32.6106 194.068 32.8239C193.609 33.0266 193.118 33.1279 192.596 33.1279C191.902 33.1279 191.278 32.9839 190.724 32.6959C190.18 32.4079 189.748 31.9813 189.428 31.4159C189.118 30.8506 188.964 30.1679 188.964 29.3679V24.1839H190.772V29.0959C190.772 29.8853 190.969 30.4933 191.364 30.9199C191.758 31.3359 192.297 31.544 192.98 31.544C193.662 31.544 194.201 31.3359 194.596 30.9199C195.001 30.4933 195.204 29.8853 195.204 29.0959V24.1839H197.028Z" fill="#2F281E"/>
<path d="M201.258 25.4639C201.525 25.0159 201.877 24.6693 202.314 24.4239C202.762 24.1679 203.29 24.0399 203.898 24.0399V25.9279H203.434C202.72 25.9279 202.176 26.1093 201.802 26.4719C201.44 26.8346 201.258 27.4639 201.258 28.3599V32.9999H199.434V24.1839H201.258V25.4639Z" fill="#2F281E"/>
<path d="M211.555 25.4799C211.865 25.0746 212.286 24.7333 212.819 24.4559C213.353 24.1786 213.955 24.0399 214.627 24.0399C215.395 24.0399 216.094 24.2319 216.723 24.6159C217.363 24.9893 217.865 25.5173 218.227 26.1999C218.59 26.8826 218.771 27.6666 218.771 28.5519C218.771 29.4373 218.59 30.2319 218.227 30.9359C217.865 31.6293 217.363 32.1733 216.723 32.568C216.094 32.952 215.395 33.1439 214.627 33.1439C213.955 33.1439 213.358 33.0106 212.835 32.7439C212.313 32.4666 211.886 32.1253 211.555 31.7199V37.192H209.731V24.1839H211.555V25.4799ZM216.915 28.5519C216.915 27.9439 216.787 27.4213 216.531 26.9839C216.286 26.5359 215.955 26.1999 215.539 25.9759C215.134 25.7413 214.697 25.6239 214.227 25.6239C213.769 25.6239 213.331 25.7413 212.915 25.9759C212.51 26.2106 212.179 26.5519 211.923 26.9999C211.678 27.4479 211.555 27.9759 211.555 28.5839C211.555 29.1919 211.678 29.7253 211.923 30.1839C212.179 30.6319 212.51 30.9733 212.915 31.2079C213.331 31.4426 213.769 31.5599 214.227 31.5599C214.697 31.5599 215.134 31.4426 215.539 31.2079C215.955 30.9626 216.286 30.6106 216.531 30.1519C216.787 29.6933 216.915 29.1599 216.915 28.5519Z" fill="#2F281E"/>
<path d="M221.503 23.0159C221.172 23.0159 220.895 22.9039 220.671 22.6799C220.447 22.4559 220.335 22.1786 220.335 21.8479C220.335 21.5173 220.447 21.2399 220.671 21.0159C220.895 20.7919 221.172 20.6799 221.503 20.6799C221.823 20.6799 222.095 20.7919 222.319 21.0159C222.543 21.2399 222.655 21.5173 222.655 21.8479C222.655 22.1786 222.543 22.4559 222.319 22.6799C222.095 22.9039 221.823 23.0159 221.503 23.0159ZM222.399 24.1839V32.9999H220.575V24.1839H222.399Z" fill="#2F281E"/>
<path d="M226.922 25.6719V30.5519C226.922 30.8826 226.996 31.1226 227.146 31.2719C227.306 31.4106 227.572 31.4799 227.946 31.4799H229.066V32.9999H227.626C226.804 32.9999 226.175 32.8079 225.738 32.4239C225.3 32.0399 225.082 31.4159 225.082 30.5519V25.6719H224.042V24.1839H225.082V21.9919H226.922V24.1839H229.066V25.6719H226.922Z" fill="#2F281E"/>
<path d="M230.139 28.5839C230.139 27.6773 230.32 26.8826 230.683 26.1999C231.056 25.5066 231.568 24.9733 232.219 24.5999C232.87 24.2266 233.616 24.0399 234.459 24.0399C235.526 24.0399 236.406 24.2959 237.099 24.8079C237.803 25.3093 238.278 26.0293 238.523 26.9679H236.555C236.395 26.5306 236.139 26.1893 235.787 25.9439C235.435 25.6986 234.992 25.5759 234.459 25.5759C233.712 25.5759 233.115 25.8426 232.667 26.3759C232.23 26.8986 232.011 27.6346 232.011 28.5839C232.011 29.5333 232.23 30.2746 232.667 30.8079C233.115 31.3413 233.712 31.6079 234.459 31.6079C235.515 31.6079 236.214 31.1439 236.555 30.2159H238.523C238.267 31.1119 237.787 31.8266 237.083 32.36C236.379 32.8826 235.504 33.1439 234.459 33.1439C233.616 33.1439 232.87 32.9573 232.219 32.5839C231.568 32.1999 231.056 31.6666 230.683 30.9839C230.32 30.2906 230.139 29.4906 230.139 28.5839Z" fill="#2F281E"/>
<path d="M244.901 24.0399C245.573 24.0399 246.17 24.1839 246.693 24.4719C247.226 24.7599 247.642 25.1866 247.941 25.7519C248.25 26.3173 248.405 26.9999 248.405 27.7999V32.9999H246.597V28.0719C246.597 27.2826 246.399 26.6799 246.005 26.2639C245.61 25.8373 245.071 25.6239 244.389 25.6239C243.706 25.6239 243.162 25.8373 242.757 26.2639C242.362 26.6799 242.165 27.2826 242.165 28.0719V32.9999H240.341V21.1599H242.165V25.2079C242.474 24.8346 242.863 24.5466 243.333 24.3439C243.813 24.1413 244.335 24.0399 244.901 24.0399Z" fill="#2F281E"/>
</g>
<defs>
<filter id="filter0_d" x="-8" y="-6" width="290" height="75" filterUnits="userSpaceOnUse" color-interpolation-filters="sRGB">
<feFlood flood-opacity="0" result="BackgroundImageFix"/>
<feColorMatrix in="SourceAlpha" type="matrix" values="0 0 0 0 0 0 0 0 0 0 0 0 0 0 0 0 0 0 127 0"/>
<feOffset dy="2"/>
<feGaussianBlur stdDeviation="4"/>
<feColorMatrix type="matrix" values="0 0 0 0 0.337255 0 0 0 0 0.458824 0 0 0 0 0.572549 0 0 0 0.1 0"/>
<feBlend mode="normal" in2="BackgroundImageFix" result="effect1_dropShadow"/>
<feBlend mode="normal" in="SourceGraphic" in2="effect1_dropShadow" result="shape"/>
</filter>
<filter id="filter1_d" x="6" y="48" width="39" height="39" filterUnits="userSpaceOnUse" color-interpolation-filters="sRGB">
<feFlood flood-opacity="0" result="BackgroundImageFix"/>
<feColorMatrix in="SourceAlpha" type="matrix" values="0 0 0 0 0 0 0 0 0 0 0 0 0 0 0 0 0 0 127 0"/>
<feOffset dy="2"/>
<feGaussianBlur stdDeviation="7.5"/>
<feColorMatrix type="matrix" values="0 0 0 0 0.0901961 0 0 0 0 0.227451 0 0 0 0 0.337255 0 0 0 0.1 0"/>
<feBlend mode="normal" in2="BackgroundImageFix" result="effect1_dropShadow"/>
<feBlend mode="normal" in="SourceGraphic" in2="effect1_dropShadow" result="shape"/>
</filter>
<clipPath id="clip0">
<rect width="274" height="70" fill="white"/>
</clipPath>
</defs>
</svg>
