<?xml version="1.0" encoding="UTF-8"?>
<!DOCTYPE svg PUBLIC "-//W3C//DTD SVG 1.1//EN" "http://www.w3.org/Graphics/SVG/1.1/DTD/svg11.dtd">
<!-- Creator: CorelDRAW 2017 -->
<svg xmlns="http://www.w3.org/2000/svg" xml:space="preserve" width="1181px" height="709px" version="1.1" style="shape-rendering:geometricPrecision; text-rendering:geometricPrecision; image-rendering:optimizeQuality; fill-rule:evenodd; clip-rule:evenodd"
viewBox="0 0 1181 709"
 xmlns:xlink="http://www.w3.org/1999/xlink">
 <defs>
  <style type="text/css">
   <![CDATA[
    .fil8 {fill:none}
    .fil3 {fill:#FEFEFE}
    .fil1 {fill:#FEFEFE}
    .fil15 {fill:#232323}
    .fil14 {fill:#377ADB}
    .fil16 {fill:#4D8DFF}
    .fil0 {fill:#4D8DFF}
    .fil12 {fill:#D1CDD3}
    .fil10 {fill:#D8D5DB}
    .fil9 {fill:#E8E5EA}
    .fil4 {fill:#FF4E4A}
    .fil13 {fill:#FFAD69}
    .fil2 {fill:#FFC84D}
    .fil11 {fill:white}
    .fil6 {fill:white;fill-opacity:0.000000}
    .fil17 {fill:#232323}
    .fil22 {fill:#2B2B2B}
    .fil23 {fill:#377ADB}
    .fil20 {fill:#4D8DFF}
    .fil24 {fill:#6EA9FF}
    .fil19 {fill:#D88344}
    .fil21 {fill:#D8D5DB}
    .fil7 {fill:#FDE6D6}
    .fil26 {fill:#FF4E4A}
    .fil18 {fill:#FFAD69}
    .fil25 {fill:#FFC84D}
    .fil5 {fill:white}
   ]]>
  </style>
    <clipPath id="id0">
     <path d="M-3151 -213l1853 0 0 1454 -1853 0 0 -1454z"/>
    </clipPath>
    <clipPath id="id1">
     <path d="M-3151 -213l1853 0 0 1454 -1853 0 0 -1454z"/>
    </clipPath>
 </defs>
 <g id="Слой_x0020_1">
  <metadata id="CorelCorpID_0Corel-Layer"/>
  <g id="_1758462376032">
   <path class="fil0" d="M109 63l964 0c40,0 73,33 73,73l0 334c0,40 -33,73 -73,73l-773 0c-1,27 -32,104 -52,100 -20,-4 -90,-101 -90,-101l-48 0c-40,0 -73,-33 -73,-73l0 -334c0,-40 33,-73 73,-73z"/>
   <polygon class="fil1" points="133,158 1005,158 1005,182 133,182 "/>
   <polygon class="fil1" points="130,258 709,258 709,282 130,282 "/>
   <rect class="fil1" x="132" y="360" width="722" height="21"/>
  </g>
  <g id="_1758462374112">
   <path class="fil2" d="M3388 559l-909 0c-38,0 -69,33 -69,73l0 334c0,40 31,73 69,73l729 0c1,27 30,104 49,100 19,-4 85,-101 85,-101l45 0c38,0 69,-33 69,-73l0 -334c0,-40 -31,-73 -69,-73z"/>
   <polygon class="fil3" points="3361,654 2990,654 2990,677 3361,677 "/>
   <polygon class="fil3" points="3361,754 2560,754 2560,777 3361,777 "/>
   <rect class="fil3" x="2968" y="855" width="395" height="21"/>
   <rect class="fil3" x="2719" y="855" width="180" height="21"/>
  </g>
  <g id="_1758462372320">
   <path class="fil4" d="M2642 1361l762 0c32,0 58,33 58,73l0 334c0,40 -26,73 -58,73l-559 0c-1,27 -12,102 -53,101 -20,1 -84,-102 -84,-102l-66 0c-32,0 -58,-33 -58,-73l0 -334c0,-40 26,-73 58,-73z"/>
   <polygon class="fil3" points="2678,1456 3082,1456 3082,1480 2678,1480 "/>
   <polygon class="fil3" points="2679,1556 2960,1556 2960,1580 2679,1580 "/>
   <rect class="fil3" x="2678" y="1658" width="553" height="21"/>
   <polygon class="fil3" points="3163,1456 3306,1456 3306,1480 3163,1480 "/>
  </g>
  <path class="fil5" d="M1877 509l-125 0 23 -112 125 0 -23 112zm-110 -120l-26 128 143 0 26 -128 -143 0z"/>
  <g id="_1758462360704">
   <g style="clip-path:url(#id0)">
    <polygon class="fil6" points="-3151,-213 -1298,-213 -1298,1241 -3151,1241 "/>
   </g>
   <g style="clip-path:url(#id1)">
    <g>
     <path id="1" class="fil7" d="M-1413 580c-6,8 -11,16 -18,24 -53,72 -120,141 -193,204 -3,3 -7,6 -10,9 -10,9 -21,18 -32,26 -19,15 -38,30 -57,44 -10,8 -21,15 -31,23 -121,86 -251,161 -379,218 -40,18 -79,34 -118,47 -204,73 -394,90 -526,18 -42,-23 -77,-55 -106,-97 -5,-7 -9,-13 -14,-20 -42,-63 -82,-126 -117,-189 -8,-15 -16,-29 -24,-44 -128,-246 -176,-494 5,-739 70,-95 186,-169 324,-222 40,-15 81,-28 124,-40 21,-6 42,-11 64,-16 27,-6 55,-12 83,-16 22,-4 43,-7 65,-10 9,-1 18,-2 27,-3 64,-7 129,-11 194,-12 9,0 17,0 25,0 39,0 78,2 116,4 10,1 21,1 31,2 195,17 375,67 496,150 27,18 50,38 71,59 4,4 8,8 11,12 1,1 2,3 3,4 25,28 45,58 61,88 77,151 32,318 -76,473z"/>
    </g>
   </g>
   <polygon class="fil8" points="-3151,-213 -1298,-213 -1298,1241 -3151,1241 "/>
   <path class="fil9" d="M-1807 1037c-47,44 -80,107 -30,145 56,42 173,32 233,-47 38,-50 59,-130 16,-174 -36,-38 -162,22 -219,76z"/>
   <path class="fil10" d="M-2489 1025c-12,0 -23,1 -35,1 -1,0 -2,1 -2,2 0,1 1,2 2,2 12,0 23,0 35,-1 1,0 2,-1 2,-2 0,-1 -1,-2 -2,-2zm-70 0c-12,0 -24,-1 -35,-2 -2,0 -2,1 -2,2 0,1 1,2 2,2 11,1 23,1 35,2 1,0 2,-1 2,-2 0,-1 -1,-2 -2,-2zm139 -5c-12,1 -23,2 -35,3 -1,0 -2,1 -2,2 0,1 1,2 2,2l0 0c11,-1 23,-2 35,-3 1,0 2,-1 2,-2 0,-1 -1,-2 -2,-2zm-209 0c-11,-1 -23,-3 -34,-4 -1,0 -2,0 -3,2 0,1 1,2 2,2 11,2 23,3 35,5l0 0c1,0 2,-1 2,-2 0,-1 -1,-2 -2,-2zm278 -8c-12,2 -23,3 -35,5 -1,0 -2,1 -2,2 0,1 1,2 2,2l0 0c11,-1 23,-3 35,-5 1,0 2,-1 2,-2 0,-1 -1,-2 -2,-2zm-347 -2c-11,-2 -23,-5 -34,-8 -1,0 -2,0 -3,1 0,1 0,2 2,2 11,3 21,5 32,8 1,0 1,0 2,0l1 0c0,0 1,0 1,0l0 0c1,0 1,-1 1,-1 0,-1 -1,-2 -2,-2zm415 -10c-11,2 -23,4 -34,6l0 0c-1,0 -2,1 -2,2 0,1 1,2 2,2l0 0c8,-1 16,-3 24,-4 3,-1 7,-1 10,-2 1,0 2,-1 2,-2 0,-1 -1,-2 -3,-1zm68 -15c-11,3 -22,5 -34,8 -1,0 -2,1 -2,2 0,1 1,2 2,2 0,0 0,0 1,0 11,-3 23,-5 34,-8 1,0 2,-1 2,-2 0,-1 -2,-2 -3,-1zm-550 7c-4,-1 -7,-2 -11,-4 -7,-3 -14,-5 -21,-8 -1,0 -2,0 -3,1 -1,1 0,2 1,3 7,3 15,6 23,9 3,1 6,2 10,3l1 0c1,0 2,0 2,-1 0,-1 0,-2 -1,-3zm617 -24c-2,1 -5,1 -7,2 -9,2 -17,5 -26,7 -1,0 -2,1 -2,2 0,1 1,1 2,1l1 0c9,-2 18,-5 26,-7 3,-1 5,-1 7,-2 1,0 2,-1 1,-3 0,-1 -2,-2 -3,-1zm-680 -2l-1 -1c-10,-5 -19,-10 -28,-16 -1,-1 -2,0 -3,1 -1,1 0,2 1,3 9,5 19,11 28,16l1 1c0,0 1,0 1,0 1,0 2,0 2,-1 1,-1 0,-2 -1,-3zm746 -18c-11,4 -22,7 -33,10 -1,0 -2,1 -1,2 0,1 1,1 2,1 0,0 0,0 1,0 11,-3 22,-7 33,-10 1,0 2,-1 1,-3 -1,-1 -2,-2 -3,-1zm68 -22c-1,-1 -2,-2 -3,-1 -11,4 -22,8 -33,12 -1,0 -2,2 -1,3 0,1 1,1 2,1 0,0 1,0 1,0 11,-4 22,-8 32,-12 1,0 2,-2 1,-3zm-871 4c-4,-3 -8,-6 -12,-9 -5,-4 -10,-8 -14,-12 -1,-1 -2,-1 -3,0 -1,1 -1,2 0,3 6,5 11,9 17,14 3,2 6,5 9,7 0,0 1,0 1,0 1,0 1,0 2,-1 1,-1 1,-2 0,-3zm935 -30c-1,-1 -2,-1 -3,-1 -10,4 -20,9 -32,13 -1,0 -2,2 -1,2 0,1 1,1 2,1 0,0 1,0 1,0 11,-5 22,-9 32,-13 1,0 2,-2 1,-2zm-985 -13c-8,-8 -15,-16 -22,-24 -1,-1 -2,-1 -3,0 -1,1 -1,2 0,3 6,8 13,15 20,23 1,1 1,1 2,2 0,0 1,1 2,1 1,0 1,0 2,0 1,-1 1,-1 1,-2 0,0 0,0 0,-1zm1048 -15c-1,-1 -2,-1 -3,-1 -10,5 -21,10 -31,14 -1,0 -1,1 -1,2 0,0 0,0 0,0 0,1 1,1 2,1 0,0 1,0 1,0 1,0 2,-1 3,-1 10,-4 19,-9 28,-13 1,0 1,-2 1,-3zm61 -31c-1,-1 -2,-1 -3,-1 -2,1 -4,2 -6,3 -8,4 -16,9 -25,13 -1,0 -1,2 -1,3 0,1 1,1 2,1 0,0 1,0 1,0 10,-5 21,-11 30,-16 0,0 0,0 1,0 1,-1 1,-1 0,-2zm-1149 -5c-6,-9 -11,-18 -16,-28 -1,-1 -2,-1 -3,-1 -1,0 -2,2 -1,3 5,9 10,19 16,28 0,1 1,1 2,1 0,0 1,0 1,0 1,0 1,-2 1,-3zm1208 -28c0,0 0,0 0,0 -1,-1 -2,-1 -3,-1 -1,0 -1,1 -2,1 -5,3 -10,6 -15,9 -4,2 -8,5 -12,7 -1,0 -1,2 -1,3 0,1 1,1 2,1 0,0 1,0 1,0 6,-3 12,-7 18,-10 4,-2 8,-4 11,-7 1,0 1,-1 1,-2zm57 -37c-1,-1 -2,-1 -3,0 -9,6 -19,12 -28,19 -1,1 -1,2 -1,3 1,0 1,1 2,1 1,0 1,0 1,0 9,-6 19,-12 28,-19 1,-1 1,-2 0,-3zm-1304 -21c0,-1 -2,-2 -3,-1 -1,0 -2,1 -2,2 3,10 7,20 10,30 0,1 1,1 2,1 0,0 0,0 1,0 1,0 2,-1 1,-2 -4,-10 -7,-20 -10,-30zm1359 -19c-1,-1 -2,-1 -3,0 -9,7 -17,13 -27,20 -1,1 -1,2 0,3 1,0 1,1 2,1 1,0 1,0 1,0 9,-7 18,-14 27,-20 1,-1 1,-2 0,-3zm-1371 -43c0,-1 -1,-2 -2,-2 -1,0 -2,1 -2,2 1,11 3,21 5,31 0,1 1,2 2,2l0 0c1,0 2,-1 2,-2 -2,-10 -4,-20 -5,-31zm1422 0c-1,-1 -2,-1 -3,0 -8,7 -17,15 -25,22 -1,1 -1,2 0,3 0,0 1,1 2,1 1,0 1,0 2,0 9,-7 17,-14 25,-22 1,-1 1,-2 0,-3zm47 -46c-1,-1 -2,-1 -3,0 -7,8 -15,16 -23,24 -1,1 -1,2 0,3 0,0 1,0 1,0 1,0 1,0 2,-1 8,-8 16,-16 23,-24 1,-1 1,-2 0,-3zm-1472 -2c0,-5 0,-9 0,-14 0,-1 -1,-2 -2,-2 -1,0 -2,1 -2,2 0,5 0,9 0,14 0,6 0,12 0,17 0,1 1,2 2,2l0 0c1,0 2,-1 2,-2 0,-6 0,-12 0,-17zm1514 -48c-1,-1 -2,0 -3,0 -6,8 -13,17 -20,25 -1,1 -1,2 0,3 0,0 1,0 1,0 1,0 1,0 2,-1 7,-8 14,-17 20,-25 1,-1 1,-2 -1,-3zm-1510 -31c-1,0 -2,0 -2,2 -2,11 -3,21 -4,31 0,1 1,2 2,2l0 0c1,0 2,-1 2,-2 1,-10 2,-21 4,-31 0,-1 -1,-2 -2,-2zm1546 -23c-1,0 -2,0 -3,1 -5,9 -11,18 -17,27 -1,1 0,2 1,3 0,0 1,0 1,0 1,0 2,0 2,-1 6,-9 12,-18 17,-27 1,-1 0,-2 -1,-3zm-1533 -39c-1,0 -2,0 -3,2 -2,10 -5,21 -7,31 0,1 1,2 2,2l1 0c1,0 2,-1 2,-2 2,-10 4,-20 7,-31 0,-1 -1,-2 -2,-2zm1561 -19c-1,0 -2,0 -3,1 -4,10 -8,19 -13,29 -1,1 0,2 1,3 0,0 1,0 1,0 1,0 2,0 2,-1 5,-10 9,-20 13,-29 1,-1 0,-2 -1,-2zm-1542 -41c-1,0 -2,0 -3,1 -3,10 -7,20 -10,30 0,1 1,2 2,2 0,0 0,0 1,0 1,0 2,-1 2,-1 3,-10 6,-20 10,-30 0,-1 0,-2 -2,-2zm1561 -19c-1,0 -2,0 -3,1 -2,10 -5,20 -9,30 0,1 0,2 2,2 0,0 0,0 1,0 1,0 2,-1 2,-2 3,-10 6,-20 9,-30 0,-1 -1,-2 -2,-2zm-1538 -40c-1,0 -2,0 -3,1 -4,10 -8,20 -12,30 -1,1 0,2 1,3l1 0c1,0 2,0 2,-1 4,-10 8,-20 12,-29 0,-1 0,-2 -1,-3zm1551 -21c-1,0 -2,1 -2,2 -2,10 -3,21 -6,31 0,1 1,2 2,2l0 0c1,0 2,-1 2,-2 2,-10 4,-21 6,-31 0,-1 -1,-2 -2,-2zm-1524 -37c-1,0 -2,0 -3,1 -5,10 -9,19 -14,29 0,1 0,2 1,3 0,0 1,0 1,0 1,0 2,0 2,-1 4,-10 9,-19 14,-29 1,-1 0,-2 -1,-3zm1530 -26c-1,0 -2,1 -2,2 -1,10 -1,21 -2,31 0,1 1,2 2,2l0 0c1,0 2,-1 2,-2 1,-10 2,-21 2,-31 0,-1 -1,-2 -2,-2zm-1500 -31c-1,0 -2,0 -3,1 -5,9 -10,19 -15,28 -1,1 0,2 1,3 0,0 1,0 1,0 1,0 2,0 2,-1 5,-9 10,-19 15,-28 1,-1 0,-2 -1,-3zm1502 -30c0,-1 -1,-2 -2,-2 -1,0 -2,1 -2,2 1,10 1,21 1,31 0,1 1,2 2,2 1,0 2,-1 2,-2 0,-10 0,-21 -1,-31zm-1469 -26c-1,0 -2,0 -3,1 -6,9 -11,19 -17,28 -1,1 0,2 1,3 0,0 1,0 1,0 1,0 2,0 2,-1 5,-9 11,-18 17,-27 1,-1 0,-2 -1,-3zm1463 -37c0,-1 -1,-2 -2,-2 -1,0 -2,1 -2,2 2,10 3,21 4,31 0,1 1,2 2,2l0 0c1,0 2,-1 2,-2 -1,-10 -2,-21 -4,-31zm-1427 -17c-1,-1 -2,0 -3,1 -6,9 -12,18 -18,27 -1,1 0,2 1,3 0,0 1,0 1,0 1,0 2,0 2,-1 6,-9 12,-18 18,-27 1,-1 0,-2 -1,-3zm1421 -15l0 0c-2,-10 -5,-20 -7,-30 0,-1 -1,-2 -3,-1 -1,0 -2,1 -2,2 3,10 5,19 7,29 0,1 0,1 1,2 0,1 1,2 2,2l0 0c1,0 2,-1 2,-2 0,0 0,-1 0,-1zm-1382 -38c-1,-1 -2,0 -3,0l-1 1c-6,9 -13,17 -19,26 -1,1 -1,2 1,3 0,0 1,0 1,0 1,0 1,0 2,-1 6,-9 13,-17 19,-26l1 -1c1,-1 0,-2 -1,-3zm1363 -29c-3,-8 -5,-15 -8,-23 0,-1 -2,-2 -3,-1 -1,0 -2,2 -1,2 3,9 6,17 9,26 0,1 1,2 1,4 0,1 1,1 2,1l1 0c1,0 2,-1 1,-3 -1,-2 -2,-5 -2,-7zm-1323 -22c-1,-1 -2,0 -3,0 -7,8 -13,17 -20,26 -1,1 0,2 1,3 1,0 1,0 1,0 1,0 1,0 2,-1 7,-9 13,-17 20,-26 1,-1 0,-2 -1,-3zm41 -51c-1,-1 -2,0 -3,0 -7,8 -14,17 -21,25 -1,1 0,2 1,3 0,0 1,0 1,0 1,0 1,0 2,-1 7,-8 14,-17 21,-25 1,-1 1,-2 0,-3zm1261 20c-1,-2 -2,-5 -3,-7 -1,-1 -1,-3 -2,-4 -3,-6 -6,-12 -9,-17 -1,-1 -2,-1 -3,-1 -1,0 -2,2 -1,2 2,4 4,8 6,12 1,3 3,5 4,8 1,3 3,5 4,8 0,0 0,1 1,1 0,1 1,1 2,1 0,0 1,0 1,0 1,0 2,-1 1,-2 0,0 0,0 0,0zm-1218 -70c-1,-1 -2,0 -3,0 -7,8 -14,16 -21,24 0,0 -1,0 -1,1 -1,1 -1,2 0,3 0,0 1,0 1,0 1,0 1,0 1,0 0,0 0,0 0,0 7,-8 14,-17 22,-25 1,-1 1,-2 0,-3zm1189 13c-2,-4 -4,-7 -7,-11 -3,-6 -7,-11 -10,-17 -1,-1 -2,-1 -3,-1 -1,1 -1,2 -1,3 4,6 7,11 11,17 2,3 4,7 6,10 1,1 1,1 2,1 0,0 1,0 1,0 1,0 2,-2 1,-3zm-1144 -61c-1,-1 -2,0 -3,0 -7,8 -15,16 -23,24 -1,1 -1,2 0,3 0,0 1,0 1,0 1,0 1,0 2,-1 7,-8 15,-16 23,-24 1,-1 1,-2 0,-3zm1109 7c-6,-9 -13,-17 -20,-26 -1,-1 -2,-1 -3,0 -1,1 -1,2 -1,3 7,8 14,17 20,26 0,0 1,1 2,1 0,0 1,0 1,0 1,0 1,-2 1,-3zm-1062 -53c-1,-1 -2,-1 -3,0 -8,7 -16,15 -24,23 -1,1 -1,2 0,3 0,0 1,0 1,0 1,0 1,0 2,-1 8,-8 16,-16 24,-23 1,-1 1,-2 0,-3zm1021 3c-7,-8 -15,-16 -23,-24 -1,-1 -2,-1 -3,0 -1,1 -1,2 0,3 7,8 15,16 22,24 1,0 1,1 2,1 1,0 1,0 1,0 1,-1 1,-2 0,-3zm-972 -47c-1,-1 -2,-1 -3,0 -8,7 -17,15 -25,22 -1,1 -1,2 0,3 0,0 1,1 2,1 1,0 1,0 2,-1 8,-7 17,-15 25,-22 1,-1 1,-2 0,-3zm926 0c-8,-7 -17,-15 -25,-22 -1,-1 -2,-1 -3,0 -1,1 -1,2 0,3 9,7 17,15 25,22 0,0 1,1 2,1 1,0 1,0 1,-1 1,-1 1,-2 0,-3zm-874 -42c-1,-1 -2,-1 -3,0 -6,5 -13,10 -19,15 -2,1 -3,2 -4,4 -1,1 -2,2 -3,3 -1,1 -1,2 0,3 1,0 1,1 2,1 1,0 1,0 1,0 2,-2 4,-3 6,-5l6 -5c5,-4 9,-7 14,-11 1,-1 1,-2 0,-3zm823 -1c-9,-7 -18,-13 -27,-20 -1,-1 -2,0 -3,0 -1,1 -1,2 0,3 9,6 18,13 27,20 0,0 1,0 1,0 1,0 1,0 2,-1 1,-1 1,-2 0,-3zm-768 -38c-1,-1 -2,-1 -3,0 -9,6 -18,12 -28,19 -1,1 -1,2 0,3 1,0 1,1 2,1 1,0 1,0 1,0 9,-7 18,-13 28,-19 1,-1 1,-2 0,-3zm713 0c-10,-6 -19,-12 -29,-17 -1,0 -2,0 -3,1 -1,1 0,2 1,3 10,6 19,11 29,17 0,0 1,0 1,0 1,0 1,0 2,-1 1,-1 1,-2 -1,-3zm-655 -35c-1,-1 -2,-1 -3,-1 -10,5 -20,11 -30,17 -1,1 -1,2 -1,3 0,0 1,1 2,1 1,0 1,0 1,0 10,-6 19,-12 29,-17 1,-1 1,-2 1,-3zm595 1c-10,-5 -21,-10 -31,-15 -1,0 -2,0 -3,1 -1,1 0,2 1,3 10,5 21,10 31,15 0,0 1,0 1,0 1,0 2,0 2,-1 1,-1 0,-2 -1,-3zm-534 -31c-1,-1 -2,-1 -3,-1 -10,4 -21,9 -31,14 -1,1 -1,2 -1,3 0,1 1,1 2,1 0,0 1,0 1,0 10,-5 21,-10 31,-14 1,0 2,-2 1,-3zm471 3c-11,-4 -21,-8 -32,-12 -1,0 -2,0 -3,1 -1,1 0,2 1,3 11,4 22,8 32,12 0,0 1,0 1,0 1,0 2,0 2,-1 1,-1 0,-2 -1,-3zm-409 -27c-11,3 -22,7 -33,11 -1,0 -2,2 -1,2 0,1 1,1 2,1 0,0 1,0 1,0 11,-4 22,-8 33,-11 1,0 2,-1 1,-2 0,-1 -2,-2 -3,-1zm344 4c-11,-3 -22,-7 -33,-9 -1,0 -2,0 -3,1 0,1 0,2 2,2 11,3 22,6 33,9l1 0c1,0 2,0 2,-1 0,-1 0,-2 -1,-2zm-277 -20c-11,2 -23,4 -34,7 -1,0 -2,1 -2,2 0,1 1,1 2,1l1 0c11,-3 23,-5 34,-7 1,0 2,-1 2,-2 0,-1 -1,-2 -3,-2zm209 3c-11,-2 -23,-4 -34,-6 -1,0 -2,1 -3,2 0,1 1,2 2,2 11,2 23,3 34,6 0,0 0,0 0,0 1,0 2,-1 2,-2 0,-1 -1,-2 -2,-2zm-139 -11l0 0c-12,1 -23,2 -35,3 -1,0 -2,1 -2,2 0,1 1,2 2,2l0 0c11,-1 23,-2 35,-3 1,0 2,-1 2,-2 0,-1 -1,-2 -2,-2zm70 1c-11,-1 -23,-2 -35,-2 -1,0 -2,1 -2,2 0,1 1,2 2,2 12,0 23,1 35,2l0 0c1,0 2,-1 2,-2 0,-1 -1,-2 -2,-2z"/>
   <path class="fil11" d="M-1421 40l-23 35 -3 5 -33 51 -7 11 -210 326 -35 54 -35 -54 -124 -193 -19 -30 -43 -66 -100 -155 642 0 -11 17zm-646 -24l115 178 33 51 19 30 124 193 45 70 45 -70 208 -322 7 -11 57 -88 16 -24 1 -2 2 -4 -672 0z"/>
   <path class="fil12" d="M-1959 811c1,2 0,4 -2,7 -4,7 -15,18 -26,26 -2,2 -5,3 -7,5 -7,5 -13,9 -18,10 -18,5 -94,-4 -113,-13 -1,-1 -2,-1 -3,-2 -8,0 -19,1 -33,0 -6,0 -13,-1 -20,-2 -17,-2 -37,-5 -58,-11 -10,-3 -21,-6 -33,-11 -10,-4 -21,-9 -32,-15 -3,-1 -5,-3 -7,-4 2,14 4,29 6,43 1,4 1,8 2,12 2,11 4,22 6,33 8,42 18,82 29,118 1,4 2,8 3,11 -4,0 -7,1 -11,1 1,4 2,7 2,11 9,42 15,94 20,147 -204,73 -394,90 -526,18 -42,-23 -77,-55 -106,-97 -5,-7 -9,-13 -14,-20 1,-22 2,-41 3,-53 -3,0 -5,0 -5,0 0,-25 1,-59 3,-97 0,-2 0,-3 0,-5 1,-11 1,-22 2,-34 1,-14 2,-29 3,-44 2,-22 3,-45 5,-69 -42,-10 -78,-21 -98,-32 -26,-14 -36,-34 -35,-53 0,-4 0,-8 1,-12 10,-29 44,-117 83,-204l-43 -13c0,0 125,-200 198,-244 0,0 1,0 1,0 26,-22 63,-35 119,-41 0,-42 -3,-112 -7,-166 -18,-4 -31,-17 -38,-29 -1,-1 -2,-2 -2,-4 -3,-5 -4,-9 -5,-11 -4,-14 0,-25 7,-32 -2,-11 -4,-30 -5,-50 -2,-36 1,-76 19,-79 0,0 -1,-1 -1,-1 -5,-13 4,-27 4,-28l8 4c0,0 -7,12 -4,22 15,-15 64,-19 116,-17 3,0 6,0 9,0 11,1 21,2 32,3 3,0 7,1 10,1 2,0 4,0 5,1 11,2 22,4 32,6 17,4 31,10 41,16 3,2 6,4 8,6 9,9 10,15 6,20 -2,2 -6,4 -11,5 2,13 3,24 3,35 1,2 2,5 3,8 1,2 2,5 3,7 0,0 0,0 1,0 1,1 2,1 3,2 4,3 7,7 10,12l-8 3c0,0 0,0 -1,-1 2,8 4,16 5,25 2,13 4,26 7,39 1,5 1,10 2,14 2,10 3,19 4,28 0,3 1,5 1,8 4,41 -1,75 -28,92 -5,3 -11,6 -19,8 -9,3 -20,4 -32,4 0,11 1,22 2,32 1,4 1,8 2,11 1,4 1,7 2,11 46,10 81,27 104,50 1,1 2,2 3,3 12,11 24,27 36,47 14,25 28,55 39,85 1,2 2,5 3,7 1,3 2,5 3,8 5,13 9,26 14,38 3,9 6,18 9,27 13,42 21,73 21,73l-21 5 -9 2 -6 1c2,7 4,15 6,22 0,1 1,2 1,3 3,10 5,19 8,29 13,49 25,94 30,124 15,11 26,28 42,44 16,16 38,31 76,37 0,0 0,0 0,0 15,-10 42,-22 58,-27 2,0 4,-1 6,-1 1,0 3,0 4,0 7,-1 8,-1 12,2 2,1 4,2 7,4 14,7 28,14 40,20 15,8 27,16 31,24 0,0 1,1 1,2z"/>
   <path class="fil13" d="M-1907 765c-12,-7 -9,-8 -23,-5 -15,3 -48,17 -64,28 0,0 0,0 0,0 -75,-11 -88,-59 -118,-81 -17,-98 -101,-365 -101,-365l-127 42c18,113 93,327 112,375 3,6 7,11 12,14 6,12 18,24 36,33 76,39 148,40 176,38 1,1 2,1 3,2 19,9 95,18 113,13 18,-5 55,-39 53,-48 -4,-15 -40,-29 -72,-46z"/>
   <path class="fil14" d="M-2327 269c-36,72 -23,301 -23,301l229 -49c0,0 -112,-442 -206,-252z"/>
   <path class="fil15" d="M-2133 1130c-40,18 -79,34 -118,47 -204,73 -394,90 -526,18 2,-68 5,-138 7,-170 0,-4 1,-7 1,-10l70 -1 3 0 0 0 380 -7 0 0 24 0 24 0 112 -2c1,5 2,10 3,15 7,32 13,70 18,111z"/>
   <path class="fil16" d="M-2495 172c-137,4 -183,45 -206,117 -27,81 -74,572 -74,735 0,0 409,26 635,-7 -71,-215 -79,-602 -80,-717 -1,-86 -102,-133 -275,-128z"/>
   <path class="fil5" d="M-2473 789l199 0 0 -399 -199 0 0 399zm-9 14l216 0 0 -428 -216 0 0 428z"/>
   <path class="fil17" d="M-2375 -28c13,-9 84,-1 63,-129 -7,-47 -56,-16 -91,-9 -35,6 -13,141 -13,141l40 -2z"/>
   <path class="fil18" d="M-2550 -59c6,34 17,218 13,260 -5,43 225,55 195,8 -30,-47 -9,-203 -9,-203l-199 -65z"/>
   <path class="fil19" d="M-2534 -54l183 60c0,0 -12,91 -5,155 -140,-10 -176,-168 -178,-198 0,-6 -1,-11 0,-17z"/>
   <path class="fil18" d="M-2292 -65c17,105 46,210 -96,192 -142,-17 -164,-180 -163,-211 2,-164 226,-188 260,19z"/>
   <path class="fil17" d="M-2307 -182c-33,-35 -221,-48 -252,-17 -3,-10 4,-22 4,-22l-8 -4c0,1 -9,15 -4,28 0,0 1,1 1,1 -34,7 -12,141 -12,141l40 -2c13,-9 60,-73 70,-112 73,11 204,31 162,-13z"/>
   <path class="fil18" d="M-2327 768c-14,1 -70,9 -90,5 -66,-14 -235,-82 -327,-120 56,-109 139,-303 139,-303l-130 -34c-60,100 -144,312 -160,361 -1,4 -1,9 -1,12 -1,19 9,39 35,53 72,39 345,78 420,85 1,3 3,5 6,6 18,9 102,16 120,19 22,3 87,8 85,1 -5,-13 -29,-90 -98,-86z"/>
   <path class="fil20" d="M-2656 216c-73,44 -198,244 -198,244l223 68c0,0 169,-428 -24,-312z"/>
   <path class="fil17" d="M-2411 -70c0,5 3,10 7,10 4,0 8,-4 9,-9 0,-5 -3,-10 -7,-10 -4,0 -8,4 -9,9z"/>
   <path class="fil17" d="M-2321 -68c0,5 3,9 7,10 4,0 8,-4 9,-9 0,-5 -3,-10 -7,-10 -4,0 -8,4 -9,9z"/>
   <path class="fil17" d="M-2434 -99l-7 -4c15,-21 41,-16 42,-16l-2 8c-1,0 -21,-4 -33,13z"/>
   <path class="fil17" d="M-2297 -89c-9,-18 -30,-17 -31,-17l-1 -8c1,0 27,-2 39,21l-8 3z"/>
   <path class="fil17" d="M-2382 27c-15,0 -43,-4 -61,-30l7 -4c21,32 59,26 61,26l2 8c0,0 -4,1 -10,1z"/>
   <polygon class="fil19" points="-2315,-9 -2358,-9 -2358,-17 -2327,-17 -2346,-74 -2338,-77 "/>
   <path class="fil18" d="M-2515 -46c13,26 29,51 -11,56 -40,5 -59,-36 -61,-44 -12,-42 47,-63 73,-12z"/>
   <path class="fil5" d="M-1426 888l-1664 0c-14,0 -25,-10 -25,-22 0,-12 11,-22 25,-22l1664 0c14,0 25,10 25,22 0,12 -11,22 -25,22z"/>
   <path class="fil21" d="M-2475 888l-628 0c-14,0 -25,-10 -25,-22 0,-12 11,-22 25,-22l628 0c14,0 25,10 25,22 0,12 -11,22 -25,22z"/>
   <path class="fil22" d="M-1508 809l-516 0c-20,0 -33,-14 -29,-32l56 -278c4,-18 22,-32 42,-32l516 0c20,0 33,14 29,32l-56 278c-4,18 -22,32 -42,32z"/>
   <path class="fil17" d="M-1495 809l-516 0c-20,0 -33,-14 -29,-32l56 -278c4,-18 22,-32 42,-32l516 0c20,0 33,14 29,32l-56 278c-4,18 -22,32 -42,32z"/>
   <path class="fil17" d="M-2115 818c0,14 13,26 29,26l540 0c16,0 29,-12 29,-26l-599 0z"/>
   <path class="fil22" d="M-2271 818c0,14 13,26 29,26l212 0c16,0 29,-12 29,-26l-271 0z"/>
  </g>
  <path class="fil23" d="M1972 -24c-18,0 -33,13 -33,30l66 0c0,-16 -15,-30 -33,-30z"/>
  <path class="fil20" d="M1972 -24l0 288c0,16 -15,30 -33,30l-241 0 0 -288c0,-16 15,-30 33,-30l241 0z"/>
  <path class="fil24" d="M1905 264l-241 0c0,16 15,30 33,30l241 0c-18,0 -33,-13 -33,-30z"/>
  <polygon class="fil5" points="1734,24 1936,24 1936,16 1734,16 "/>
  <polygon class="fil5" points="1734,54 1936,54 1936,46 1734,46 "/>
  <polygon class="fil5" points="1734,83 1936,83 1936,76 1734,76 "/>
  <polygon class="fil5" points="1734,113 1936,113 1936,105 1734,105 "/>
  <polygon class="fil5" points="1734,142 1936,142 1936,135 1734,135 "/>
  <polygon class="fil5" points="1734,172 1936,172 1936,164 1734,164 "/>
  <polygon class="fil5" points="1735,287 1938,272 1933,212 1731,226 "/>
  <polygon class="fil5" points="1734,231 1936,231 1936,223 1734,223 "/>
  <path class="fil25" d="M1933 -190c-46,41 -121,41 -167,0 -46,-41 -46,-108 0,-150 46,-41 121,-41 167,0 46,41 46,108 0,150z"/>
  <path class="fil17" d="M1820 -262l94 84c-51,46 -136,46 -188,0 -22,-20 -36,-46 -38,-74l132 -10z"/>
  <path class="fil5" d="M1820 -262l-132 14c-2,-13 -1,-27 2,-40 3,-13 9,-26 17,-37l112 63z"/>
  <path class="fil17" d="M1804 -431l-100 0c-13,0 -23,-9 -23,-21l0 -90c0,-12 11,-21 23,-21l100 0c13,0 23,9 23,21l0 90c0,12 -11,21 -23,21z"/>
  <path class="fil26" d="M1775 -405l-100 0c-13,0 -23,-9 -23,-21l0 -90c0,-12 11,-21 23,-21l100 0c13,0 23,9 23,21l0 90c0,12 -11,21 -23,21z"/>
 </g>
</svg>
