<svg width="228" height="18" viewBox="0 0 228 18" fill="none" xmlns="http://www.w3.org/2000/svg">
<path d="M6.316 7.25603C6.72133 7.32003 7.08933 7.48536 7.42 7.75203C7.76133 8.0187 8.02799 8.34936 8.21999 8.74403C8.42266 9.1387 8.52399 9.56003 8.52399 10.008C8.52399 10.5734 8.37999 11.0854 8.09199 11.544C7.80399 11.992 7.38266 12.3494 6.828 12.616C6.284 12.872 5.63866 13 4.89199 13H0.731995V1.84803H4.73199C5.48933 1.84803 6.13466 1.97603 6.66799 2.23203C7.20133 2.47736 7.60133 2.81336 7.86799 3.24003C8.13466 3.6667 8.26799 4.1467 8.26799 4.68003C8.26799 5.34136 8.08666 5.8907 7.72399 6.32803C7.37199 6.7547 6.90266 7.06403 6.316 7.25603ZM2.18799 6.66403H4.63599C5.31866 6.66403 5.84666 6.50403 6.21999 6.18403C6.59333 5.86403 6.77999 5.42136 6.77999 4.85603C6.77999 4.2907 6.59333 3.84803 6.21999 3.52803C5.84666 3.20803 5.30799 3.04803 4.60399 3.04803H2.18799V6.66403ZM4.764 11.8C5.48933 11.8 6.05466 11.6294 6.46 11.288C6.86533 10.9467 7.068 10.472 7.068 9.86403C7.068 9.24536 6.85466 8.76003 6.42799 8.40803C6.00133 8.04536 5.43066 7.86403 4.71599 7.86403H2.18799V11.8H4.764Z" fill="#544837"/>
<path d="M18.0965 4.23203L12.8165 17.128H11.3125L13.0405 12.904L9.50449 4.23203H11.1205L13.8725 11.336L16.5925 4.23203H18.0965Z" fill="#544837"/>
<path d="M30.5777 11.016H26.3857L25.7137 13H22.8497L26.9137 1.76803H30.0817L34.1457 13H31.2497L30.5777 11.016ZM29.8737 8.90403L28.4817 4.79203L27.1057 8.90403H29.8737Z" fill="#544837"/>
<path d="M38.1186 5.33603C38.3746 4.92003 38.7426 4.58403 39.2226 4.32803C39.7026 4.07203 40.252 3.94403 40.8706 3.94403C41.6066 3.94403 42.2733 4.1307 42.8706 4.50403C43.468 4.87736 43.9373 5.4107 44.2786 6.10403C44.6306 6.79736 44.8066 7.6027 44.8066 8.52003C44.8066 9.43736 44.6306 10.248 44.2786 10.952C43.9373 11.6454 43.468 12.184 42.8706 12.568C42.2733 12.9414 41.6066 13.128 40.8706 13.128C40.2413 13.128 39.692 13.0054 39.2226 12.76C38.7533 12.504 38.3853 12.168 38.1186 11.752V13H35.3826V1.16003H38.1186V5.33603ZM42.0226 8.52003C42.0226 7.83736 41.8306 7.30403 41.4466 6.92003C41.0733 6.52536 40.6093 6.32803 40.0546 6.32803C39.5106 6.32803 39.0466 6.52536 38.6626 6.92003C38.2893 7.3147 38.1026 7.85336 38.1026 8.53603C38.1026 9.2187 38.2893 9.75736 38.6626 10.152C39.0466 10.5467 39.5106 10.744 40.0546 10.744C40.5986 10.744 41.0626 10.5467 41.4466 10.152C41.8306 9.7467 42.0226 9.2027 42.0226 8.52003Z" fill="#544837"/>
<path d="M45.698 8.52003C45.698 7.6027 45.8687 6.79736 46.21 6.10403C46.562 5.4107 47.0367 4.87736 47.634 4.50403C48.2313 4.1307 48.898 3.94403 49.634 3.94403C50.2207 3.94403 50.754 4.0667 51.234 4.31203C51.7247 4.55736 52.1087 4.88803 52.386 5.30403V1.16003H55.122V13H52.386V11.72C52.13 12.1467 51.762 12.488 51.282 12.744C50.8127 13 50.2633 13.128 49.634 13.128C48.898 13.128 48.2313 12.9414 47.634 12.568C47.0367 12.184 46.562 11.6454 46.21 10.952C45.8687 10.248 45.698 9.43736 45.698 8.52003ZM52.386 8.53603C52.386 7.85336 52.194 7.3147 51.81 6.92003C51.4367 6.52536 50.978 6.32803 50.434 6.32803C49.89 6.32803 49.426 6.52536 49.042 6.92003C48.6687 7.30403 48.482 7.83736 48.482 8.52003C48.482 9.2027 48.6687 9.7467 49.042 10.152C49.426 10.5467 49.89 10.744 50.434 10.744C50.978 10.744 51.4367 10.5467 51.81 10.152C52.194 9.75736 52.386 9.2187 52.386 8.53603Z" fill="#544837"/>
<path d="M65.9174 4.07203V13H63.1814V11.784C62.904 12.1787 62.5254 12.4987 62.0454 12.744C61.576 12.9787 61.0534 13.096 60.4774 13.096C59.7947 13.096 59.192 12.9467 58.6694 12.648C58.1467 12.3387 57.7414 11.896 57.4534 11.32C57.1654 10.744 57.0214 10.0667 57.0214 9.28803V4.07203H59.7414V8.92003C59.7414 9.51736 59.896 9.98136 60.2054 10.312C60.5147 10.6427 60.9307 10.808 61.4534 10.808C61.9867 10.808 62.408 10.6427 62.7174 10.312C63.0267 9.98136 63.1814 9.51736 63.1814 8.92003V4.07203H65.9174Z" fill="#544837"/>
<path d="M70.6186 1.16003V13H67.8826V1.16003H70.6186Z" fill="#544837"/>
<path d="M75.3374 1.16003V13H72.6014V1.16003H75.3374Z" fill="#544837"/>
<path d="M76.7761 8.52003C76.7761 7.6027 76.9468 6.79736 77.2881 6.10403C77.6401 5.4107 78.1148 4.87736 78.7121 4.50403C79.3095 4.1307 79.9761 3.94403 80.7121 3.94403C81.3415 3.94403 81.8908 4.07203 82.3601 4.32803C82.8401 4.58403 83.2081 4.92003 83.4641 5.33603V4.07203H86.2001V13H83.4641V11.736C83.1974 12.152 82.8241 12.488 82.3441 12.744C81.8748 13 81.3254 13.128 80.6961 13.128C79.9708 13.128 79.3095 12.9414 78.7121 12.568C78.1148 12.184 77.6401 11.6454 77.2881 10.952C76.9468 10.248 76.7761 9.43736 76.7761 8.52003ZM83.4641 8.53603C83.4641 7.85336 83.2721 7.3147 82.8881 6.92003C82.5148 6.52536 82.0561 6.32803 81.5121 6.32803C80.9681 6.32803 80.5041 6.52536 80.1201 6.92003C79.7468 7.30403 79.5601 7.83736 79.5601 8.52003C79.5601 9.2027 79.7468 9.7467 80.1201 10.152C80.5041 10.5467 80.9681 10.744 81.5121 10.744C82.0561 10.744 82.5148 10.5467 82.8881 10.152C83.2721 9.75736 83.4641 9.2187 83.4641 8.53603Z" fill="#544837"/>
<path d="M93.6675 3.97603C94.6915 3.97603 95.5128 4.31736 96.1315 5.00003C96.7502 5.67203 97.0595 6.60003 97.0595 7.78403V13H94.3395V8.15203C94.3395 7.5547 94.1848 7.0907 93.8755 6.76003C93.5662 6.42936 93.1502 6.26403 92.6275 6.26403C92.1048 6.26403 91.6888 6.42936 91.3795 6.76003C91.0702 7.0907 90.9155 7.5547 90.9155 8.15203V13H88.1795V1.16003H90.9155V5.27203C91.1928 4.87736 91.5715 4.5627 92.0515 4.32803C92.5315 4.09336 93.0702 3.97603 93.6675 3.97603Z" fill="#544837"/>
<path d="M105.29 14.696H103.834V0.280029H105.29V14.696Z" fill="#544837"/>
<path d="M116.414 7.09603C116.414 5.26136 116.713 3.83203 117.31 2.80803C117.907 1.77336 118.953 1.25603 120.446 1.25603C121.929 1.25603 122.969 1.77336 123.566 2.80803C124.163 3.83203 124.462 5.26136 124.462 7.09603C124.462 8.9627 124.163 10.4134 123.566 11.448C122.969 12.4827 121.929 13 120.446 13C118.953 13 117.907 12.4827 117.31 11.448C116.713 10.4134 116.414 8.9627 116.414 7.09603ZM123.022 7.09603C123.022 6.16803 122.958 5.38403 122.83 4.74403C122.713 4.09336 122.462 3.5707 122.078 3.17603C121.705 2.78136 121.161 2.58403 120.446 2.58403C119.721 2.58403 119.166 2.78136 118.782 3.17603C118.409 3.5707 118.158 4.09336 118.03 4.74403C117.913 5.38403 117.854 6.16803 117.854 7.09603C117.854 8.05603 117.913 8.86136 118.03 9.51203C118.158 10.1627 118.409 10.6854 118.782 11.08C119.166 11.4747 119.721 11.672 120.446 11.672C121.161 11.672 121.705 11.4747 122.078 11.08C122.462 10.6854 122.713 10.1627 122.83 9.51203C122.958 8.86136 123.022 8.05603 123.022 7.09603Z" fill="#544837"/>
<path d="M126.429 4.34403C126.503 3.3627 126.882 2.5947 127.565 2.04003C128.247 1.48536 129.133 1.20803 130.221 1.20803C130.946 1.20803 131.57 1.34136 132.093 1.60803C132.626 1.86403 133.026 2.21603 133.293 2.66403C133.57 3.11203 133.709 3.6187 133.709 4.18403C133.709 4.84536 133.517 5.41603 133.133 5.89603C132.759 6.37603 132.269 6.68536 131.661 6.82403V6.90403C132.354 7.0747 132.903 7.4107 133.309 7.91203C133.714 8.41336 133.917 9.06936 133.917 9.88003C133.917 10.488 133.778 11.0374 133.501 11.528C133.223 12.008 132.807 12.3867 132.253 12.664C131.698 12.9414 131.031 13.08 130.253 13.08C129.122 13.08 128.194 12.7867 127.469 12.2C126.743 11.6027 126.338 10.76 126.253 9.67203H127.661C127.735 10.312 127.997 10.8347 128.445 11.24C128.893 11.6454 129.49 11.848 130.237 11.848C130.983 11.848 131.549 11.656 131.933 11.272C132.327 10.8774 132.525 10.3707 132.525 9.75203C132.525 8.95203 132.258 8.37603 131.725 8.02403C131.191 7.67203 130.386 7.49603 129.309 7.49603H128.941V6.28003H129.325C130.306 6.26936 131.047 6.10936 131.549 5.80003C132.05 5.48003 132.301 4.98936 132.301 4.32803C132.301 3.7627 132.114 3.30936 131.741 2.96803C131.378 2.6267 130.855 2.45603 130.173 2.45603C129.511 2.45603 128.978 2.6267 128.573 2.96803C128.167 3.30936 127.927 3.76803 127.853 4.34403H126.429Z" fill="#544837"/>
<path d="M151.7 1.92803V13H150.244V4.74403L146.564 13H145.54L141.844 4.72803V13H140.388V1.92803H141.956L146.052 11.08L150.148 1.92803H151.7Z" fill="#544837"/>
<path d="M153.626 8.58403C153.626 7.68803 153.807 6.90403 154.169 6.23203C154.532 5.54936 155.028 5.02136 155.658 4.64803C156.298 4.2747 157.007 4.08803 157.786 4.08803C158.554 4.08803 159.22 4.25336 159.786 4.58403C160.351 4.9147 160.772 5.3307 161.049 5.83203V4.23203H162.521V13H161.049V11.368C160.762 11.88 160.329 12.3067 159.753 12.648C159.188 12.9787 158.527 13.144 157.77 13.144C156.991 13.144 156.287 12.952 155.658 12.568C155.028 12.184 154.532 11.6454 154.169 10.952C153.807 10.2587 153.626 9.46936 153.626 8.58403ZM161.049 8.60003C161.049 7.9387 160.916 7.3627 160.65 6.87203C160.383 6.38136 160.02 6.00803 159.561 5.75203C159.113 5.48536 158.618 5.35203 158.074 5.35203C157.529 5.35203 157.033 5.48003 156.585 5.73603C156.137 5.99203 155.78 6.36536 155.514 6.85603C155.247 7.3467 155.113 7.9227 155.113 8.58403C155.113 9.25603 155.247 9.8427 155.514 10.344C155.78 10.8347 156.137 11.2134 156.585 11.48C157.033 11.736 157.529 11.864 158.074 11.864C158.618 11.864 159.113 11.736 159.561 11.48C160.02 11.2134 160.383 10.8347 160.65 10.344C160.916 9.8427 161.049 9.26136 161.049 8.60003Z" fill="#544837"/>
<path d="M166.438 5.65603C166.694 5.1547 167.057 4.76536 167.526 4.48803C168.006 4.2107 168.587 4.07203 169.27 4.07203V5.57603H168.886C167.254 5.57603 166.438 6.46136 166.438 8.23203V13H164.982V4.23203H166.438V5.65603Z" fill="#544837"/>
<path d="M170.407 8.60003C170.407 7.69336 170.588 6.90403 170.951 6.23203C171.313 5.54936 171.815 5.02136 172.455 4.64803C173.105 4.2747 173.847 4.08803 174.679 4.08803C175.756 4.08803 176.641 4.34936 177.335 4.87203C178.039 5.3947 178.503 6.12003 178.727 7.04803H177.159C177.009 6.5147 176.716 6.09336 176.279 5.78403C175.852 5.4747 175.319 5.32003 174.679 5.32003C173.847 5.32003 173.175 5.60803 172.663 6.18403C172.151 6.74936 171.895 7.5547 171.895 8.60003C171.895 9.65603 172.151 10.472 172.663 11.048C173.175 11.624 173.847 11.912 174.679 11.912C175.319 11.912 175.852 11.7627 176.279 11.464C176.705 11.1654 176.999 10.7387 177.159 10.184H178.727C178.492 11.08 178.023 11.8 177.319 12.344C176.615 12.8774 175.735 13.144 174.679 13.144C173.847 13.144 173.105 12.9574 172.455 12.584C171.815 12.2107 171.313 11.6827 170.951 11C170.588 10.3174 170.407 9.51736 170.407 8.60003Z" fill="#544837"/>
<path d="M185.021 4.07203C185.683 4.07203 186.28 4.21603 186.814 4.50403C187.347 4.78136 187.763 5.2027 188.061 5.76803C188.371 6.33336 188.525 7.02136 188.525 7.83203V13H187.085V8.04003C187.085 7.16536 186.867 6.4987 186.43 6.04003C185.992 5.5707 185.395 5.33603 184.637 5.33603C183.869 5.33603 183.256 5.57603 182.798 6.05603C182.35 6.53603 182.126 7.2347 182.126 8.15203V13H180.669V1.16003H182.126V5.48003C182.413 5.03203 182.808 4.68536 183.309 4.44003C183.821 4.1947 184.392 4.07203 185.021 4.07203Z" fill="#544837"/>
<path d="M194.753 11.832C196.108 10.744 197.169 9.85336 197.938 9.16003C198.706 8.45603 199.351 7.72536 199.874 6.96803C200.407 6.20003 200.674 5.44803 200.674 4.71203C200.674 4.0187 200.503 3.4747 200.161 3.08003C199.831 2.6747 199.292 2.47203 198.546 2.47203C197.82 2.47203 197.255 2.70136 196.85 3.16003C196.455 3.60803 196.242 4.2107 196.21 4.96803H194.801C194.844 3.77336 195.207 2.8507 195.889 2.20003C196.572 1.54936 197.452 1.22403 198.529 1.22403C199.628 1.22403 200.497 1.52803 201.137 2.13603C201.788 2.74403 202.113 3.58136 202.113 4.64803C202.113 5.53336 201.847 6.39736 201.314 7.24003C200.791 8.07203 200.193 8.80803 199.521 9.44803C198.85 10.0774 197.991 10.8134 196.945 11.656H202.449V12.872H194.753V11.832Z" fill="#544837"/>
<path d="M204.133 7.09603C204.133 5.26136 204.431 3.83203 205.029 2.80803C205.626 1.77336 206.671 1.25603 208.165 1.25603C209.647 1.25603 210.687 1.77336 211.285 2.80803C211.882 3.83203 212.181 5.26136 212.181 7.09603C212.181 8.9627 211.882 10.4134 211.285 11.448C210.687 12.4827 209.647 13 208.165 13C206.671 13 205.626 12.4827 205.029 11.448C204.431 10.4134 204.133 8.9627 204.133 7.09603ZM210.741 7.09603C210.741 6.16803 210.677 5.38403 210.549 4.74403C210.431 4.09336 210.181 3.5707 209.797 3.17603C209.423 2.78136 208.879 2.58403 208.165 2.58403C207.439 2.58403 206.885 2.78136 206.501 3.17603C206.127 3.5707 205.877 4.09336 205.749 4.74403C205.631 5.38403 205.573 6.16803 205.573 7.09603C205.573 8.05603 205.631 8.86136 205.749 9.51203C205.877 10.1627 206.127 10.6854 206.501 11.08C206.885 11.4747 207.439 11.672 208.165 11.672C208.879 11.672 209.423 11.4747 209.797 11.08C210.181 10.6854 210.431 10.1627 210.549 9.51203C210.677 8.86136 210.741 8.05603 210.741 7.09603Z" fill="#544837"/>
<path d="M213.796 2.76003V1.43203H216.803V13H215.331V2.76003H213.796Z" fill="#544837"/>
<path d="M221.176 9.89603C221.283 10.504 221.529 10.9734 221.913 11.304C222.307 11.6347 222.835 11.8 223.497 11.8C224.382 11.8 225.033 11.4534 225.449 10.76C225.875 10.0667 226.078 8.8987 226.057 7.25603C225.833 7.73603 225.459 8.1147 224.936 8.39203C224.414 8.6587 223.833 8.79203 223.193 8.79203C222.478 8.79203 221.838 8.64803 221.273 8.36003C220.718 8.06136 220.281 7.62936 219.96 7.06403C219.64 6.4987 219.48 5.81603 219.48 5.01603C219.48 3.8747 219.811 2.95736 220.473 2.26403C221.134 1.56003 222.072 1.20803 223.288 1.20803C224.782 1.20803 225.827 1.69336 226.424 2.66403C227.033 3.6347 227.337 5.08003 227.337 7.00003C227.337 8.34403 227.214 9.45336 226.969 10.328C226.734 11.2027 226.329 11.8694 225.753 12.328C225.187 12.7867 224.409 13.016 223.417 13.016C222.329 13.016 221.48 12.7227 220.872 12.136C220.264 11.5494 219.918 10.8027 219.833 9.89603H221.176ZM223.432 7.56003C224.147 7.56003 224.734 7.34136 225.193 6.90403C225.651 6.45603 225.88 5.85336 225.88 5.09603C225.88 4.29603 225.656 3.6507 225.208 3.16003C224.76 2.66936 224.131 2.42403 223.32 2.42403C222.574 2.42403 221.977 2.6587 221.529 3.12803C221.091 3.59736 220.872 4.21603 220.872 4.98403C220.872 5.7627 221.091 6.3867 221.529 6.85603C221.966 7.32536 222.6 7.56003 223.432 7.56003Z" fill="#544837"/>
</svg>
