<?xml version="1.0" encoding="UTF-8"?>
<!DOCTYPE svg PUBLIC "-//W3C//DTD SVG 1.1//EN" "http://www.w3.org/Graphics/SVG/1.1/DTD/svg11.dtd">
<!-- Creator: CorelDRAW 2017 -->
<svg xmlns="http://www.w3.org/2000/svg" xml:space="preserve" width="1240px" height="1748px" version="1.1" style="shape-rendering:geometricPrecision; text-rendering:geometricPrecision; image-rendering:optimizeQuality; fill-rule:evenodd; clip-rule:evenodd"
viewBox="0 0 1240 1748"
 xmlns:xlink="http://www.w3.org/1999/xlink">
 <defs>
  <style type="text/css">
   <![CDATA[
    .fil3 {fill:#112129}
    .fil4 {fill:#22343D}
    .fil1 {fill:#775298}
    .fil2 {fill:#F3A683}
    .fil0 {fill:#FF7B5B}
    .fil8 {fill:#FFA192}
    .fil7 {fill:#FFB2A0}
    .fil5 {fill:#FFC6B2}
    .fil6 {fill:white}
   ]]>
  </style>
 </defs>
 <g id="Слой_x0020_1">
  <metadata id="CorelCorpID_0Corel-Layer"/>
  <g id="_2250168268784">
   <path class="fil0" d="M535 635c0,0 -9,6 -4,17 4,10 24,41 51,40 1,0 -33,-57 -33,-57l-13 0z"/>
   <path class="fil1" d="M494 1202c0,0 -33,-30 -44,-24 -13,7 -87,80 -84,114 1,14 18,2 47,-28 29,-30 66,-17 66,-17l16 -44z"/>
   <path class="fil1" d="M575 1253l-40 -24c0,0 -104,98 -88,111 12,10 20,1 49,-29 29,-30 66,-13 66,-13l13 -44z"/>
   <polygon class="fil2" points="819,931 827,1038 660,995 "/>
   <path class="fil3" d="M660 998c0,0 146,9 165,3 0,0 29,281 -22,311 -51,30 -165,-14 -165,-14l31 -61 66 -4 0 -108 -5 1 -71 -128z"/>
   <path class="fil4" d="M477 1190c0,0 -37,15 -25,52 0,0 125,99 186,76 34,-13 71,-110 96,-193l90 -124c0,0 -43,2 -57,2 -27,0 -108,-5 -108,-5 0,0 -42,223 -58,228 -15,5 -125,-37 -125,-37z"/>
   <path class="fil5" d="M694 719c0,0 87,-82 103,-104 15,-22 47,-94 87,-125l-19 -41c0,0 12,-7 19,11 0,0 28,-56 35,-55 6,1 -13,43 -13,43 0,0 27,-39 35,-38 8,1 -19,44 -19,44 0,0 30,-35 35,-31 4,4 -24,31 -24,31 0,0 30,-17 33,-12 3,6 -30,21 -30,21 0,0 -3,25 -24,36 0,0 -41,110 -77,146l-118 123 -22 -49z"/>
   <path class="fil5" d="M590 761c0,0 -83,87 -105,102 -22,15 -94,47 -125,87l-41 -20c0,0 -7,12 11,20 0,0 -56,28 -55,34 1,7 43,-13 43,-13 0,0 -39,27 -38,34 1,8 44,-19 44,-19 0,0 -35,30 -31,34 4,4 31,-24 31,-24 0,0 -18,30 -12,33 6,3 21,-30 21,-30 0,0 25,-3 36,-23 0,0 104,-41 140,-78l129 -92 -48 -46z"/>
   <path class="fil6" d="M621 727l-42 41 11 46c0,0 41,99 48,124 10,38 -6,95 -6,95 0,0 70,-6 134,-8 64,-2 84,-23 84,-23 0,0 -55,-184 -93,-236 -38,-52 -52,-68 -52,-68l-56 12 -27 16z"/>
   <path class="fil6" d="M744 760l44 -28c0,0 7,-30 -46,-65l-62 39 64 55z"/>
   <path class="fil6" d="M588 765c-24,3 -68,64 -73,64 0,0 31,50 55,52 0,0 107,-129 17,-116z"/>
   <path class="fil5" d="M672 725c0,0 -35,-26 -34,-36 0,-3 5,-7 6,-11 7,-20 -26,-73 -46,-84 -16,-9 -9,-9 -42,10 -33,20 -14,54 1,71 14,17 30,24 44,25l20 46 50 -22z"/>
   <path class="fil5" d="M610 761c-7,-16 6,-37 28,-46 22,-9 45,-3 52,13 7,16 -16,41 -28,46 -12,5 -45,3 -52,-13z"/>
   <path class="fil5" d="M558 676c0,0 -11,-1 -13,7 -1,8 21,8 29,2l-16 -9z"/>
   <path class="fil0" d="M564 683c-2,-14 -17,-24 -16,-37 7,0 11,-9 8,-16 -1,-3 -3,-5 -5,-8 -1,-3 -2,-7 0,-8 1,-1 2,-1 4,-1 10,-1 28,2 37,-1 9,-3 19,-10 18,-21 -1,-10 -9,-17 -17,-23 -4,-3 -17,-12 -22,-11 -7,1 -9,11 -10,19 -5,-5 -13,-4 -17,0 -4,4 -7,10 -9,16 -2,6 -4,13 -8,17 -4,4 -11,7 -10,13 1,8 11,10 16,17 -1,-2 -2,9 -1,10 2,5 7,9 10,13 8,9 11,17 21,22z"/>
   <path class="fil6" d="M627 652l-26 13c0,0 31,22 26,-13z"/>
   <path class="fil7" d="M591 657c1,3 -1,7 -5,9 -4,2 -8,2 -10,-1 -1,-3 1,-7 5,-9 4,-2 8,-2 10,1z"/>
   <path class="fil7" d="M629 631c1,3 -1,7 -5,9 -4,2 -8,2 -10,-1 -1,-3 1,-7 5,-9 4,-2 8,-2 10,1z"/>
   <path class="fil0" d="M609 651c0,0 0,-1 1,-2 1,-1 3,-2 4,-3 1,-1 2,-4 0,-5 -2,-1 -5,2 -7,4 -1,1 -1,1 -2,2 -1,1 -2,1 -3,1 -3,0 -4,-2 -5,-3 -2,-3 -3,-5 -4,-8 -1,-5 -1,-8 0,-8 0,0 1,3 2,7 1,2 2,4 4,7 1,1 2,2 3,2 0,0 1,0 1,-1 1,-1 1,-1 2,-2 1,-1 3,-2 4,-3 2,-1 4,-2 6,-1 2,1 3,3 3,5 0,2 -1,3 -2,4 -2,2 -4,2 -5,3 -1,0 -2,1 -2,1z"/>
   <path class="fil8" d="M602 701c0,0 16,0 25,-5 0,0 -8,9 -23,12l-3 -6z"/>
   <path class="fil4" d="M609 627c0,1 -2,1 -5,2 -2,1 -4,2 -5,2 -1,0 0,-3 4,-5 3,-1 6,0 6,1z"/>
   <path class="fil4" d="M577 648c-1,0 0,-3 3,-6 2,-3 5,-4 6,-3 0,1 -2,2 -4,5 -2,2 -4,4 -5,4z"/>
   <path class="fil0" d="M565 644c-1,-1 -2,-5 3,-11 5,-6 11,-5 12,-3 1,2 -1,4 -6,9 -5,5 -7,6 -9,5z"/>
   <path class="fil0" d="M592 622c-1,-1 0,-5 7,-8 7,-3 11,0 11,2 0,2 -3,3 -8,5 -6,3 -9,2 -9,1z"/>
  </g>
 </g>
</svg>
