<?xml version="1.0" encoding="UTF-8"?>
<!DOCTYPE svg PUBLIC "-//W3C//DTD SVG 1.1//EN" "http://www.w3.org/Graphics/SVG/1.1/DTD/svg11.dtd">
<!-- Creator: CorelDRAW 2017 -->
<svg xmlns="http://www.w3.org/2000/svg" xml:space="preserve" width="1240px" height="1748px" version="1.1" style="shape-rendering:geometricPrecision; text-rendering:geometricPrecision; image-rendering:optimizeQuality; fill-rule:evenodd; clip-rule:evenodd"
viewBox="0 0 1240 1748"
 xmlns:xlink="http://www.w3.org/1999/xlink">
 <defs>
  <style type="text/css">
   <![CDATA[
    .fil0 {fill:#22343D}
    .fil3 {fill:#654287}
    .fil4 {fill:#775298}
    .fil2 {fill:#FF7B5B}
    .fil7 {fill:#FFA192}
    .fil6 {fill:#FFB2A0}
    .fil1 {fill:#FFC6B2}
    .fil5 {fill:white}
   ]]>
  </style>
 </defs>
 <g id="Слой_x0020_1">
  <metadata id="CorelCorpID_0Corel-Layer"/>
  <g id="_2250169098464">
   <path class="fil0" d="M425 617c-9,-22 -12,-47 -26,-67 -19,-29 -56,-43 -71,-73 -7,-13 -9,-28 -9,-43 0,-29 8,-60 31,-78 26,-21 64,-21 94,-7 30,14 53,40 72,67 19,27 36,56 59,80 17,18 37,33 49,55 35,58 -1,131 -62,152 -54,18 -119,-40 -137,-86z"/>
   <path class="fil1" d="M349 1024c5,4 0,1 7,6 -2,19 -20,32 -20,32 0,0 -1,31 -7,30 -6,-1 -2,-30 -2,-30 0,0 -12,30 -17,28 -5,-2 13,-37 13,-37 0,0 -25,35 -29,29 -3,-5 19,-39 19,-39 0,0 -27,29 -31,24 -3,-5 33,-45 33,-45 -17,0 -15,-12 -15,-12l40 2c0,0 5,7 7,9z"/>
   <path class="fil1" d="M735 442c7,1 2,-1 11,2 15,-13 13,-35 13,-35 0,0 25,-20 21,-24 -4,-4 -26,17 -26,17 0,0 17,-28 13,-30 -5,-3 -22,33 -22,33 0,0 13,-41 6,-40 -7,1 -20,38 -20,38 0,0 6,-39 1,-38 -6,1 -15,51 -15,51 -14,-11 -23,-4 -23,-4l30 29c0,0 10,0 13,0z"/>
   <path class="fil1" d="M566 611c13,-2 51,23 41,73 -1,4 -6,14 -8,17 -2,5 12,23 12,23l-35 11c-1,-11 1,-26 -10,-31 -4,-2 -9,-3 -13,-5 -11,-6 -16,-19 -21,-29 -3,-8 -6,-16 -6,-25 0,-21 19,-32 39,-35z"/>
   <path class="fil1" d="M635 748c0,-18 -6,-25 -25,-25 -19,0 -44,7 -44,25 0,18 13,41 32,41 19,0 36,-23 36,-41z"/>
   <path class="fil1" d="M620 715c0,0 59,-61 71,-121 12,-60 32,-157 32,-157l22 6c0,0 11,132 0,153 -11,20 -71,161 -70,197l-55 -79z"/>
   <path class="fil1" d="M515 744c0,0 -20,3 -51,73 -31,70 -125,200 -125,200l15 14c0,0 92,-69 110,-110 18,-42 40,-94 51,-91 11,2 55,-60 0,-86z"/>
   <path class="fil2" d="M673 803l27 -76c0,0 -4,-36 -58,-48l-31 44 62 80z"/>
   <path class="fil2" d="M524 738c0,0 -32,3 -59,61 0,0 29,40 50,41 0,0 78,-67 9,-102z"/>
   <path class="fil1" d="M613 1424c0,0 -47,96 -52,78 -5,-18 -4,-60 -1,-66 3,-6 22,-33 22,-33l31 21z"/>
   <path class="fil3" d="M617 969l43 -16c0,0 127,225 126,287 -1,62 -174,187 -174,187l-29 -24c0,0 82,-121 111,-153 14,-16 -88,-93 -104,-167 -16,-74 27,-114 27,-114z"/>
   <path class="fil1" d="M360 1374c0,0 -87,65 -84,47 4,-18 26,-55 31,-59 6,-4 35,-20 35,-20l17 32z"/>
   <path class="fil4" d="M501 1049l126 -74c0,0 5,255 -25,311 -30,55 -245,90 -245,90l-14 -34c0,0 132,-79 173,-95 41,-15 -15,-199 -15,-199z"/>
   <path class="fil4" d="M576 925c0,0 -93,33 -75,124 18,91 47,108 47,108l53 -88 54 -115 -54 -7 -26 -22z"/>
   <path class="fil2" d="M620 715c0,0 69,39 69,126 0,0 -9,99 -23,121 0,0 -23,6 -52,0 -30,-6 -59,-27 -59,-27l-23 -122 -18 -71 10 -3 52 -6c0,0 -7,77 50,39 12,-8 -15,-48 -15,-48l10 -9z"/>
   <polygon class="fil5" points="662,385 806,470 887,316 752,241 "/>
   <polygon class="fil5" points="862,1119 965,1055 880,906 786,968 "/>
   <path class="fil0" d="M356 485c0,0 3,3 8,9 5,6 12,15 19,27 7,12 14,27 19,45 5,18 8,37 16,57 4,9 9,18 15,26 6,8 12,14 19,20 14,11 28,19 41,24 13,5 24,7 31,7 8,1 12,1 12,1 0,0 -4,1 -12,1 -8,0 -19,-2 -32,-6 -13,-4 -28,-12 -43,-24 -7,-6 -14,-13 -20,-21 -6,-8 -11,-17 -15,-27 -8,-20 -11,-40 -16,-57 -4,-17 -11,-33 -17,-45 -6,-12 -12,-21 -17,-28 -4,-6 -7,-10 -7,-10z"/>
   <path class="fil0" d="M533 387c1,0 2,14 10,35 4,10 10,23 18,35 4,6 9,12 15,18 5,6 11,12 17,19 11,14 19,29 26,42 7,13 13,26 16,37 3,11 3,21 2,27 -1,6 -3,10 -3,10 -1,0 0,-4 1,-10 0,-6 -1,-15 -4,-26 -3,-11 -9,-23 -17,-36 -8,-13 -15,-27 -26,-40 -5,-7 -11,-13 -17,-19 -6,-6 -11,-12 -15,-19 -9,-13 -14,-25 -18,-36 -4,-11 -5,-20 -6,-26 -1,-6 -1,-10 0,-10z"/>
   <path class="fil2" d="M577 665c0,0 2,-1 5,-3 1,-1 1,-1 1,-2 0,-1 0,-2 -1,-2 -1,-1 -1,-1 -2,-1 -1,0 -2,1 -4,1 -4,0 -6,-2 -8,-3 -2,-2 -3,-4 -4,-5 -2,-3 -3,-5 -3,-6 0,0 2,2 4,4 1,1 3,3 5,4 2,1 4,3 6,2 1,0 3,-1 4,-1 2,0 4,1 5,2 1,1 2,3 2,4 0,2 -1,2 -2,3 -3,3 -6,2 -6,2z"/>
   <path class="fil5" d="M594 668l-28 10c0,0 23,21 28,-10z"/>
   <path class="fil6" d="M563 666c1,2 -1,5 -4,7 -3,2 -7,1 -8,-1 -1,-2 1,-5 4,-7 3,-2 7,-1 8,1z"/>
   <path class="fil6" d="M596 649c1,2 -1,5 -4,6 -3,1 -7,1 -8,-2 -1,-2 1,-5 4,-6 3,-1 7,-1 8,2z"/>
   <path class="fil7" d="M567 705c0,0 9,2 21,-1 0,0 -6,6 -15,7 0,0 -2,-4 -6,-6z"/>
   <path class="fil0" d="M576 643c1,1 1,2 0,3 -1,1 -2,1 -3,0 -1,-1 -1,-2 0,-3 1,-1 2,-1 3,0z"/>
   <path class="fil0" d="M558 654c1,1 1,2 0,3 -1,1 -2,1 -3,0 -1,-1 -1,-2 0,-3 1,-1 2,-1 3,0z"/>
   <path class="fil0" d="M576 633c0,1 -3,1 -5,2 -3,1 -4,2 -5,1 -1,0 1,-3 4,-4 3,-1 6,1 6,1z"/>
   <path class="fil0" d="M544 652c-1,0 0,-3 3,-6 2,-3 5,-4 6,-3 0,1 -2,2 -4,5 -2,2 -4,4 -5,4z"/>
   <path class="fil1" d="M534 673c0,0 -9,-7 -13,-1 -4,7 19,10 19,10l-6 -10z"/>
   <path class="fil4" d="M321 1353c0,0 -13,6 -16,9 -3,3 -34,56 -30,63 4,7 34,-16 34,-16 0,0 -25,5 12,-56z"/>
   <g>
    <path class="fil4" d="M569 1423c0,0 -9,10 -10,14 -1,4 -4,65 3,69 7,4 24,-29 24,-29 0,0 -21,17 -16,-54l0 0zm0 0l0 0 0 0z"/>
   </g>
  </g>
 </g>
</svg>
