<?xml version="1.0" encoding="UTF-8"?>
<!DOCTYPE svg PUBLIC "-//W3C//DTD SVG 1.1//EN" "http://www.w3.org/Graphics/SVG/1.1/DTD/svg11.dtd">
<!-- Creator: CorelDRAW 2017 -->
<svg xmlns="http://www.w3.org/2000/svg" xml:space="preserve" width="1240px" height="1748px" version="1.1" style="shape-rendering:geometricPrecision; text-rendering:geometricPrecision; image-rendering:optimizeQuality; fill-rule:evenodd; clip-rule:evenodd"
viewBox="0 0 1240 1748"
 xmlns:xlink="http://www.w3.org/1999/xlink">
 <defs>
  <style type="text/css">
   <![CDATA[
    .fil3 {fill:none}
    .fil6 {fill:#22343D}
    .fil0 {fill:#775298}
    .fil7 {fill:#FF7B5B}
    .fil9 {fill:#FFA192}
    .fil4 {fill:#FFB2A0}
    .fil5 {fill:#FFC6B2}
    .fil8 {fill:white}
    .fil1 {fill:white;fill-opacity:0.000000}
    .fil2 {fill:#775298}
   ]]>
  </style>
    <clipPath id="id0">
     <path d="M418 460l529 0 0 260 -529 0 0 -260z"/>
    </clipPath>
    <clipPath id="id1">
     <path d="M418 460l529 0 0 260 -529 0 0 -260z"/>
    </clipPath>
 </defs>
 <g id="Слой_x0020_1">
  <metadata id="CorelCorpID_0Corel-Layer"/>
  <g id="_2250165985712">
   <path class="fil0" d="M793 698c0,0 -7,8 -21,17 -15,9 -38,17 -64,18 -26,0 -50,-8 -64,-17 -15,-9 -22,-16 -22,-17 1,-1 9,6 24,13 15,7 37,15 62,14 25,0 47,-8 62,-15 15,-8 23,-14 23,-14z"/>
   <path class="fil0" d="M631 686c0,1 -8,-2 -22,-5 -7,-2 -15,-3 -24,-4 -9,-1 -19,-2 -29,-3 -10,-1 -21,-2 -30,-3 -9,-1 -17,-3 -24,-4 -14,-4 -21,-8 -21,-8 0,-1 8,2 22,4 7,1 15,2 24,3 9,1 19,2 29,2 11,1 21,2 30,3 9,1 17,3 24,5 13,4 21,9 21,9z"/>
   <g style="clip-path:url(#id0)">
    <polygon class="fil1" points="418,460 947,460 947,720 418,720 "/>
   </g>
   <g style="clip-path:url(#id1)">
    <g>
     <path id="1" class="fil2" d="M472 513c25,-5 51,-1 77,4 25,4 52,8 77,1 45,-12 79,-58 125,-57 19,0 37,8 56,13 23,5 47,5 71,9 23,4 48,13 61,33 16,23 11,57 -5,80 -17,23 -43,37 -70,45 -19,6 -39,9 -55,20 -17,11 -27,29 -43,42 -39,32 -99,23 -139,-7 -10,-8 -19,-16 -31,-22 -46,-23 -112,7 -151,-34 -40,-42 -34,-111 28,-125z"/>
    </g>
   </g>
   <polygon class="fil3" points="418,460 947,460 947,720 418,720 "/>
   <path class="fil4" d="M459 1319c0,0 42,90 47,74 5,-17 3,-57 1,-63 -3,-6 -20,-31 -20,-31l-28 20z"/>
   <path class="fil5" d="M763 588c4,5 1,0 6,7 18,-1 31,-16 31,-16 0,0 29,1 29,-4 0,-5 -28,-3 -28,-3 0,0 29,-9 28,-14 -2,-5 -35,10 -35,10 0,0 34,-21 29,-24 -5,-3 -38,15 -38,15 0,0 28,-23 24,-26 -4,-3 -44,27 -44,27 1,-15 -10,-14 -10,-14l0 37c0,0 7,5 8,7z"/>
   <path class="fil5" d="M332 423c-6,1 -1,-1 -9,1 -13,-13 -11,-33 -11,-33 0,0 -22,-19 -19,-22 4,-4 23,16 23,16 0,0 -16,-26 -11,-29 4,-2 20,31 20,31 0,0 -11,-38 -5,-38 6,1 18,36 18,36 0,0 -6,-36 -1,-36 5,1 14,49 14,49 9,-12 17,-4 17,-4l-24 26c0,0 -9,0 -11,0z"/>
   <path class="fil5" d="M483 575c-8,-1 -27,12 -37,33 -5,12 -9,24 -3,43 3,9 9,10 10,14 2,5 -4,21 -4,21l23 9c1,-11 3,-22 14,-27 4,-2 9,-3 13,-5 11,-6 16,-20 21,-31 3,-8 -17,-54 -37,-57z"/>
   <path class="fil4" d="M456 889l-38 -15c0,0 -114,212 -114,271 0,59 157,177 157,177l26 -23c0,0 -48,-84 -74,-114 -26,-30 43,-295 43,-295z"/>
   <path class="fil5" d="M647 1131c0,0 85,-40 68,-44 -17,-4 -57,1 -62,4 -5,3 -29,22 -29,22l24 17z"/>
   <path class="fil5" d="M494 887l-58 21c0,0 -58,257 -36,298 22,40 85,14 174,-35l75 -41 -25 -17c0,0 -87,17 -111,34 0,0 13,-36 30,-87 17,-51 29,-103 -48,-173z"/>
   <path class="fil5" d="M422 712c0,-17 5,-29 23,-29 17,0 41,6 41,23 0,17 -13,45 -30,45 -17,0 -33,-21 -33,-38z"/>
   <path class="fil5" d="M435 680c0,0 -53,-58 -64,-114 -11,-56 -29,-148 -29,-148l-20 6c0,0 -10,125 0,144 10,19 56,147 70,180l42 -68z"/>
   <path class="fil5" d="M492 725c0,0 4,-18 71,-42 67,-24 193,-103 193,-103l13 14c0,0 -69,80 -109,94 -40,14 -125,69 -134,73 -13,7 -13,15 -35,-36z"/>
   <path class="fil6" d="M435 680c0,0 -54,18 -54,100 0,0 0,113 13,133 0,0 21,5 46,0 27,-6 53,-26 53,-26l42 -128 -5 -60 -58 -11c0,0 17,77 -43,44 -12,-6 17,-50 17,-50l-12 -2z"/>
   <path class="fil6" d="M390 747l-27 -55c0,0 4,-34 52,-46 0,0 5,17 10,23 5,6 21,13 21,13l-57 64z"/>
   <path class="fil6" d="M490 769l84 -17c0,0 15,-30 -20,-67 0,0 -66,4 -74,5 -8,1 -3,7 -3,7l13 72z"/>
   <g>
    <path class="fil6" d="M394 885c0,0 -80,148 -93,174 0,0 235,108 331,-22 0,0 -54,-115 -138,-159l-36 -11 -62 17 -1 1zm0 0l0 0 0 0z"/>
   </g>
   <path class="fil5" d="M517 631c0,0 9,-9 15,-3 6,6 -20,15 -20,15l6 -13z"/>
   <path class="fil0" d="M684 507c0,0 -3,2 -10,3 -7,2 -17,3 -29,3 -12,0 -27,-1 -43,-3 -16,-2 -33,-5 -52,-7 -18,-2 -36,-2 -51,0 -16,2 -29,8 -39,14 -10,6 -17,13 -22,18 -4,5 -6,8 -7,8 0,0 1,-4 5,-9 4,-6 11,-13 22,-20 10,-7 24,-12 41,-15 16,-3 34,-3 53,-1 19,2 36,5 52,8 16,2 30,4 42,4 24,1 39,-4 39,-3z"/>
   <path class="fil7" d="M471 626c0,0 -3,1 -7,-1 -1,0 -2,-1 -3,-2 -1,0 -1,-1 -1,-2 0,-1 0,-2 0,-3 0,0 0,-1 0,-1l1 0c1,0 1,0 2,0 1,0 1,0 2,0 1,0 3,0 4,0 6,-1 9,-5 11,-9 2,-3 2,-6 2,-6 0,0 1,3 0,7 -1,2 -2,4 -4,6 -2,2 -5,4 -8,4 -2,0 -3,0 -5,0 -1,0 -2,0 -2,0 0,0 0,0 0,0 0,0 0,0 0,0 0,0 0,1 1,1 1,1 1,1 2,2 3,2 6,2 6,3z"/>
   <path class="fil8" d="M452 627l31 12c0,0 -27,19 -31,-12z"/>
   <path class="fil4" d="M496 633c-1,2 -5,2 -8,1 -3,-2 -5,-5 -4,-7 1,-2 5,-2 8,-1 3,2 5,5 4,7z"/>
   <path class="fil4" d="M462 615c-1,2 -4,3 -8,1 -3,-1 -5,-4 -4,-6 1,-2 4,-3 8,-1 3,1 5,4 4,6z"/>
   <path class="fil9" d="M450 661c0,0 11,9 22,6 0,0 -4,6 -19,4 0,0 1,-6 -3,-10z"/>
   <path class="fil6" d="M494 614c0,1 -1,2 -2,2 -1,0 -2,-1 -2,-2 0,-1 1,-2 2,-2 1,0 2,1 2,2z"/>
   <path class="fil6" d="M473 606c0,1 -1,2 -2,2 -1,0 -2,-1 -2,-2 0,-1 1,-2 2,-2 1,0 2,1 2,2z"/>
   <path class="fil0" d="M501 607c-1,0 -2,-1 -4,-3 -2,-2 -4,-2 -4,-3 0,-1 3,-1 6,1 3,2 4,5 3,5z"/>
   <path class="fil0" d="M466 595c0,-1 3,-2 6,-2 4,0 6,2 6,3 0,1 -3,0 -6,0 -3,0 -6,0 -6,-1z"/>
   <path class="fil6" d="M477 1355c0,0 13,46 26,42 13,-4 3,-68 3,-68l-13 -21c0,0 13,108 -16,47z"/>
   <path class="fil6" d="M640 1100c0,0 9,-10 21,-12 11,-2 52,-7 58,-1 6,5 -33,24 -33,24 0,0 14,-9 8,-12 -10,-6 -54,1 -54,1z"/>
   <polygon class="fil6" points="624,1112 637,1138 644,1135 627,1109 "/>
   <polygon class="fil6" points="481,1288 450,1316 459,1324 486,1295 "/>
  </g>
 </g>
</svg>
